<?xml version="1.0" encoding="UTF-8"?>
<!DOCTYPE svg PUBLIC "-//W3C//DTD SVG 1.1//EN" "http://www.w3.org/Graphics/SVG/1.1/DTD/svg11.dtd">
<svg xmlns="http://www.w3.org/2000/svg" version="1.1" width="512px" height="512px" style="shape-rendering:geometricPrecision; text-rendering:geometricPrecision; image-rendering:optimizeQuality; fill-rule:evenodd; clip-rule:evenodd" xmlns:xlink="http://www.w3.org/1999/xlink">
<g><path style="opacity:1" fill="#a0c9b9" d="M 255.5,-0.5 C 255.833,-0.5 256.167,-0.5 256.5,-0.5C 270.427,0.109719 284.427,1.44305 298.5,3.5C 288.681,4.49402 278.681,4.82735 268.5,4.5C 265.526,5.65083 262.526,6.81749 259.5,8C 249.146,9.28091 238.813,10.7809 228.5,12.5C 228.5,11.8333 228.5,11.1667 228.5,10.5C 230.989,10.7022 233.323,10.2022 235.5,9C 230.167,8.66667 224.833,8.33333 219.5,8C 222.365,7.8171 225.031,7.3171 227.5,6.5C 230.568,6.45327 233.568,5.95327 236.5,5C 236.167,4.66667 235.833,4.33333 235.5,4C 232.662,3.63047 229.829,3.79713 227,4.5C 224.992,4.69316 223.492,4.0265 222.5,2.5C 233.598,1.16798 244.598,0.167978 255.5,-0.5 Z"/></g>
<g><path style="opacity:1" fill="#245e45" d="M 216.5,3.5 C 218.265,2.53862 220.265,2.20528 222.5,2.5C 223.492,4.0265 224.992,4.69316 227,4.5C 229.829,3.79713 232.662,3.63047 235.5,4C 235.833,4.33333 236.167,4.66667 236.5,5C 233.568,5.95327 230.568,6.45327 227.5,6.5C 224.024,5.07364 220.357,4.07364 216.5,3.5 Z"/></g>
<g><path style="opacity:1" fill="#225944" d="M 298.5,3.5 C 314.741,6.14103 330.408,10.4744 345.5,16.5C 344.127,16.3433 342.793,16.51 341.5,17C 346.165,18.611 350.832,20.111 355.5,21.5C 355.5,22.5 355.5,23.5 355.5,24.5C 354.244,24.4614 353.244,24.9614 352.5,26C 354.037,27.7073 355.704,29.2073 357.5,30.5C 357.918,31.2216 358.584,31.7216 359.5,32C 358.044,32.4226 357.544,33.2559 358,34.5C 360.869,37.7041 364.035,40.5374 367.5,43C 364.077,42.8551 362.077,44.3551 361.5,47.5C 357.093,47.9066 356.426,49.9066 359.5,53.5C 358.579,55.0314 358.912,56.3647 360.5,57.5C 356.693,60.3697 352.359,61.5363 347.5,61C 343.325,57.3316 343.992,54.3316 349.5,52C 342.103,52.3926 338.603,56.2259 339,63.5C 340.41,64.7875 341.91,65.9542 343.5,67C 342.672,67.9147 341.672,68.5814 340.5,69C 330.559,67.9393 320.559,67.106 310.5,66.5C 302.362,65.8946 294.695,67.3946 287.5,71C 298.115,69.1402 308.781,69.1402 319.5,71C 323.018,72.533 326.518,74.033 330,75.5C 331.667,75.1667 333.333,74.8333 335,74.5C 344.233,78.1819 352.566,76.8485 360,70.5C 360.561,67.7019 359.394,65.8686 356.5,65C 357.846,63.3308 359.513,62.1642 361.5,61.5C 364.466,68.7613 368.466,75.4279 373.5,81.5C 371.498,84.3338 368.998,86.6671 366,88.5C 364.445,90.4434 363.278,92.6101 362.5,95C 366.421,98.6713 368.921,103.171 370,108.5C 375.364,114.061 381.864,115.895 389.5,114C 399.161,111.002 408.161,106.669 416.5,101C 419.692,98.9718 422.359,96.4718 424.5,93.5C 426.69,96.688 429.024,99.8546 431.5,103C 434.623,103.206 437.623,103.873 440.5,105C 442.071,108.074 444.404,110.24 447.5,111.5C 448.267,112.172 448.934,113.005 449.5,114C 451.736,114.265 453.736,115.098 455.5,116.5C 455.205,118.735 455.539,120.735 456.5,122.5C 454.962,124.551 455.296,126.218 457.5,127.5C 459.615,125.385 459.949,123.051 458.5,120.5C 460.226,120.815 461.893,120.981 463.5,121C 461.767,119.811 460.1,118.644 458.5,117.5C 459.239,117.631 459.906,117.464 460.5,117C 459.429,116.148 458.429,115.315 457.5,114.5C 458.93,114.421 460.264,114.754 461.5,115.5C 462.192,114.975 462.692,114.308 463,113.5C 464.704,115.373 466.537,117.04 468.5,118.5C 468.5,119.5 468.5,120.5 468.5,121.5C 467.153,120.972 465.819,120.805 464.5,121C 463.952,122.596 464.618,123.763 466.5,124.5C 465.668,129.481 465.502,134.481 466,139.5C 466.333,139.833 466.667,140.167 467,140.5C 467.526,137.728 468.359,135.062 469.5,132.5C 470.427,134.113 471.261,135.779 472,137.5C 472.77,138.598 473.603,138.598 474.5,137.5C 475.338,137.842 475.672,138.508 475.5,139.5C 475.5,140.5 475.5,141.5 475.5,142.5C 475.555,145.614 476.888,147.948 479.5,149.5C 480.167,149.833 480.833,150.167 481.5,150.5C 482.674,151.514 483.34,152.847 483.5,154.5C 483.5,155.5 483.5,156.5 483.5,157.5C 485,164.833 486.167,172.166 487,179.5C 486,177.5 485,175.5 484,173.5C 483.138,175.087 482.471,176.754 482,178.5C 481.586,178.043 481.086,177.709 480.5,177.5C 479.859,178.993 478.859,179.993 477.5,180.5C 479.665,172.859 479.832,165.192 478,157.5C 477.481,156.484 476.647,155.818 475.5,155.5C 473.795,156.545 472.295,157.878 471,159.5C 466.958,168.427 461.791,176.594 455.5,184C 448.09,186.884 440.423,188.884 432.5,190C 426.939,193.272 421.605,196.772 416.5,200.5C 415.927,193.093 412.094,190.426 405,192.5C 402.357,191.679 400.024,190.346 398,188.5C 396.873,184.25 395.207,180.25 393,176.5C 391.319,178.294 389.486,178.794 387.5,178C 386.919,178.893 386.585,179.893 386.5,181C 387.726,184.605 389.059,188.105 390.5,191.5C 386.336,191.857 383.169,190.19 381,186.5C 379.875,183.11 378.375,179.943 376.5,177C 372.216,175.643 367.882,174.477 363.5,173.5C 363.586,171.323 364.253,169.323 365.5,167.5C 363.931,162.62 362.931,157.62 362.5,152.5C 359.444,150.129 357.777,146.963 357.5,143C 356.128,142.598 354.795,142.098 353.5,141.5C 351.851,142.648 350.351,143.981 349,145.5C 347.883,144.051 347.216,142.384 347,140.5C 345.434,141.061 344.101,140.394 343,138.5C 344.131,133.289 344.464,127.956 344,122.5C 337.072,118.285 329.905,114.452 322.5,111C 319.985,110.061 319.318,108.561 320.5,106.5C 327.19,107.429 333.69,109.095 340,111.5C 342.667,111.833 344.667,110.833 346,108.5C 347.539,111.521 350.039,112.854 353.5,112.5C 353.703,110.61 353.037,109.11 351.5,108C 347.28,105.302 343.114,102.469 339,99.5C 338.384,96.2125 336.884,93.3792 334.5,91C 325.954,91.4433 319.287,95.2767 314.5,102.5C 310.681,100.886 308.848,97.8861 309,93.5C 306.112,88.2245 302.612,83.3911 298.5,79C 292.675,76.4083 286.675,75.9083 280.5,77.5C 277.201,77.262 274.201,76.262 271.5,74.5C 270.707,74.9312 269.873,75.2645 269,75.5C 260.69,74.1739 252.69,71.8406 245,68.5C 240.403,69.757 235.903,71.0903 231.5,72.5C 230.167,72.3333 228.833,72.1667 227.5,72C 222.727,67.0649 218.561,67.5649 215,73.5C 214.5,73 214,72.5 213.5,72C 213.833,69 214.167,66 214.5,63C 213.833,62.3333 213.167,61.6667 212.5,61C 212.5,58.3333 212.5,55.6667 212.5,53C 213.167,52.3333 213.833,51.6667 214.5,51C 214.167,48 213.833,45 213.5,42C 214.463,39.2688 216.13,36.6021 218.5,34C 216.11,29.9524 216.777,26.2857 220.5,23C 220.167,22.6667 219.833,22.3333 219.5,22C 220.99,19.5095 222.656,17.0095 224.5,14.5C 224.842,13.6618 225.508,13.3284 226.5,13.5C 225.402,14.397 225.402,15.2303 226.5,16C 230.002,16.3331 232.835,17.8331 235,20.5C 240.095,21.1474 244.929,22.4808 249.5,24.5C 249.5,25.5 249.5,26.5 249.5,27.5C 246.104,29.0213 242.937,28.688 240,26.5C 238.349,27.7424 236.515,28.5757 234.5,29C 233.944,31.2365 232.944,33.2365 231.5,35C 233.522,37.0184 236.022,37.8517 239,37.5C 245.444,37.2533 251.611,36.92 257.5,36.5C 258.15,36.8039 258.817,37.1373 259.5,37.5C 260.228,35.8068 261.228,34.3068 262.5,33C 267.909,33.6292 271.909,31.6292 274.5,27C 281.815,26.1296 289.148,25.463 296.5,25C 298.997,24.5883 300.997,23.4216 302.5,21.5C 298.636,19.8022 295.969,16.9689 294.5,13C 289.94,11.1927 285.273,9.69273 280.5,8.5C 278.944,9.54707 277.277,10.2137 275.5,10.5C 272.751,9.02597 270.418,7.02597 268.5,4.5C 278.681,4.82735 288.681,4.49402 298.5,3.5 Z"/></g>
<g><path style="opacity:1" fill="#80b6ad" d="M 216.5,3.5 C 220.357,4.07364 224.024,5.07364 227.5,6.5C 224.781,6.60255 222.115,6.26922 219.5,5.5C 217.392,5.85989 215.392,6.52655 213.5,7.5C 218.564,8.82735 223.564,9.82735 228.5,10.5C 228.5,11.1667 228.5,11.8333 228.5,12.5C 228.158,13.3382 227.492,13.6716 226.5,13.5C 225.508,13.3284 224.842,13.6618 224.5,14.5C 217.111,15.8469 209.778,17.5136 202.5,19.5C 201.833,19.3333 201.167,19.1667 200.5,19C 201.833,18.3333 203.167,17.6667 204.5,17C 201.833,16.8333 199.167,16.6667 196.5,16.5C 188.444,17.2345 180.444,18.0678 172.5,19C 180.738,17.2762 188.738,14.9428 196.5,12C 187.185,12.3281 178.018,13.8281 169,16.5C 168.235,16.4301 167.735,16.0967 167.5,15.5C 183.409,9.77286 199.742,5.77286 216.5,3.5 Z"/></g>
<g><path style="opacity:1" fill="#45b346" d="M 268.5,4.5 C 270.418,7.02597 272.751,9.02597 275.5,10.5C 277.838,11.6817 279.838,13.3483 281.5,15.5C 276.842,17.5976 276.508,20.0976 280.5,23C 275.384,24.9625 270.384,27.1291 265.5,29.5C 261.493,28.3072 257.493,27.4738 253.5,27C 254.357,27.6891 255.023,28.5224 255.5,29.5C 253.856,32.6032 254.523,34.9365 257.5,36.5C 251.611,36.92 245.444,37.2533 239,37.5C 236.022,37.8517 233.522,37.0184 231.5,35C 232.944,33.2365 233.944,31.2365 234.5,29C 236.515,28.5757 238.349,27.7424 240,26.5C 242.937,28.688 246.104,29.0213 249.5,27.5C 249.5,26.5 249.5,25.5 249.5,24.5C 244.929,22.4808 240.095,21.1474 235,20.5C 232.835,17.8331 230.002,16.3331 226.5,16C 225.402,15.2303 225.402,14.397 226.5,13.5C 227.492,13.6716 228.158,13.3382 228.5,12.5C 238.813,10.7809 249.146,9.28091 259.5,8C 262.526,6.81749 265.526,5.65083 268.5,4.5 Z"/></g>
<g><path style="opacity:1" fill="#245f45" d="M 227.5,6.5 C 225.031,7.3171 222.365,7.8171 219.5,8C 224.833,8.33333 230.167,8.66667 235.5,9C 233.323,10.2022 230.989,10.7022 228.5,10.5C 223.564,9.82735 218.564,8.82735 213.5,7.5C 215.392,6.52655 217.392,5.85989 219.5,5.5C 222.115,6.26922 224.781,6.60255 227.5,6.5 Z"/></g>
<g><path style="opacity:1" fill="#34864d" d="M 257.5,36.5 C 254.523,34.9365 253.856,32.6032 255.5,29.5C 255.023,28.5224 254.357,27.6891 253.5,27C 257.493,27.4738 261.493,28.3072 265.5,29.5C 270.384,27.1291 275.384,24.9625 280.5,23C 276.508,20.0976 276.842,17.5976 281.5,15.5C 279.838,13.3483 277.838,11.6817 275.5,10.5C 277.277,10.2137 278.944,9.54707 280.5,8.5C 285.273,9.69273 289.94,11.1927 294.5,13C 295.969,16.9689 298.636,19.8022 302.5,21.5C 300.997,23.4216 298.997,24.5883 296.5,25C 289.148,25.463 281.815,26.1296 274.5,27C 271.909,31.6292 267.909,33.6292 262.5,33C 261.228,34.3068 260.228,35.8068 259.5,37.5C 258.817,37.1373 258.15,36.8039 257.5,36.5 Z"/></g>
<g><path style="opacity:1" fill="#112d2a" d="M 224.5,14.5 C 222.656,17.0095 220.99,19.5095 219.5,22C 219.833,22.3333 220.167,22.6667 220.5,23C 216.777,26.2857 216.11,29.9524 218.5,34C 216.13,36.6021 214.463,39.2688 213.5,42C 213.833,45 214.167,48 214.5,51C 213.833,51.6667 213.167,52.3333 212.5,53C 212.5,55.6667 212.5,58.3333 212.5,61C 213.167,61.6667 213.833,62.3333 214.5,63C 214.167,66 213.833,69 213.5,72C 214,72.5 214.5,73 215,73.5C 218.561,67.5649 222.727,67.0649 227.5,72C 228.833,72.1667 230.167,72.3333 231.5,72.5C 235.903,71.0903 240.403,69.757 245,68.5C 252.69,71.8406 260.69,74.1739 269,75.5C 269.873,75.2645 270.707,74.9312 271.5,74.5C 274.201,76.262 277.201,77.262 280.5,77.5C 286.675,75.9083 292.675,76.4083 298.5,79C 302.612,83.3911 306.112,88.2245 309,93.5C 308.848,97.8861 310.681,100.886 314.5,102.5C 314.196,103.15 313.863,103.817 313.5,104.5C 315.707,105.635 318.04,106.301 320.5,106.5C 319.318,108.561 319.985,110.061 322.5,111C 329.905,114.452 337.072,118.285 344,122.5C 344.464,127.956 344.131,133.289 343,138.5C 344.101,140.394 345.434,141.061 347,140.5C 347.216,142.384 347.883,144.051 349,145.5C 350.351,143.981 351.851,142.648 353.5,141.5C 354.795,142.098 356.128,142.598 357.5,143C 357.777,146.963 359.444,150.129 362.5,152.5C 362.931,157.62 363.931,162.62 365.5,167.5C 364.253,169.323 363.586,171.323 363.5,173.5C 367.882,174.477 372.216,175.643 376.5,177C 378.375,179.943 379.875,183.11 381,186.5C 383.169,190.19 386.336,191.857 390.5,191.5C 389.059,188.105 387.726,184.605 386.5,181C 386.585,179.893 386.919,178.893 387.5,178C 389.486,178.794 391.319,178.294 393,176.5C 395.207,180.25 396.873,184.25 398,188.5C 400.024,190.346 402.357,191.679 405,192.5C 412.094,190.426 415.927,193.093 416.5,200.5C 409.167,208.5 401.5,216.167 393.5,223.5C 388.738,222.868 384.071,221.868 379.5,220.5C 379.703,222.39 379.037,223.89 377.5,225C 372.531,228.305 367.197,229.138 361.5,227.5C 357.278,229.055 353.945,231.722 351.5,235.5C 352.458,238.685 351.958,241.685 350,244.5C 346.872,241.381 346.372,238.047 348.5,234.5C 346.579,233.359 344.579,233.192 342.5,234C 341.5,235.667 340.5,237.333 339.5,239C 337.735,239.64 336.068,239.473 334.5,238.5C 340.881,223.856 345.548,208.69 348.5,193C 347.816,187.064 346.65,181.231 345,175.5C 343.147,173.408 340.814,172.408 338,172.5C 328.163,174.058 318.663,176.725 309.5,180.5C 309.31,175.602 309.143,170.602 309,165.5C 304.169,156.67 297.836,155.336 290,161.5C 288.535,160.67 287.035,160.504 285.5,161C 286.849,162.635 286.682,164.135 285,165.5C 279.805,163.468 274.972,160.802 270.5,157.5C 267.585,159.72 266.085,162.72 266,166.5C 262.283,169.885 258.283,172.885 254,175.5C 254.39,180.398 254.224,185.232 253.5,190C 255.728,193.388 257.728,196.888 259.5,200.5C 248.526,203.932 237.859,207.932 227.5,212.5C 220.182,214.242 214.015,217.909 209,223.5C 206.929,233.847 204.596,244.181 202,254.5C 200.865,266.964 194.698,275.798 183.5,281C 174.728,282.883 165.894,284.05 157,284.5C 156.685,285.908 157.018,287.241 158,288.5C 160.374,290.539 162.374,292.872 164,295.5C 169.355,298.678 174.355,302.345 179,306.5C 184.282,314.641 183.116,321.807 175.5,328C 171.525,330.576 167.192,332.076 162.5,332.5C 164.288,329.613 166.122,326.613 168,323.5C 168.667,321.167 168.667,318.833 168,316.5C 165.642,312.642 162.475,309.642 158.5,307.5C 151.546,289.204 138.212,281.37 118.5,284C 113.029,285.814 110.196,289.647 110,295.5C 107.649,292.114 105.482,288.614 103.5,285C 84.9862,277.448 79.8195,264.615 88,246.5C 93.9356,240.111 101.102,235.611 109.5,233C 111.379,229.112 114.045,225.779 117.5,223C 122.833,219.667 128.167,216.333 133.5,213C 138.167,212.667 142.833,212.333 147.5,212C 147.957,211.586 148.291,211.086 148.5,210.5C 131.603,207.261 114.603,204.428 97.5,202C 85.8379,199.499 74.8379,195.332 64.5,189.5C 69.5497,182.385 70.5497,174.719 67.5,166.5C 67.5676,163.562 68.2342,160.895 69.5,158.5C 73.8814,159.471 78.2147,160.304 82.5,161C 77.9845,157.97 73.6512,154.803 69.5,151.5C 70.3739,148.211 71.0405,144.877 71.5,141.5C 68.1907,141.858 64.8574,142.191 61.5,142.5C 61.0354,139.677 62.0354,137.177 64.5,135C 64.0426,134.586 63.7093,134.086 63.5,133.5C 69.7877,124.585 75.2877,115.252 80,105.5C 85.0775,100.928 89.5775,95.9276 93.5,90.5C 100.055,90.5272 106.055,88.6938 111.5,85C 118.779,74.0543 126.446,63.3877 134.5,53C 149.344,46.9405 164.344,41.2738 179.5,36C 182.362,35.0695 184.695,33.4029 186.5,31C 170.504,34.3308 154.504,37.9974 138.5,42C 129.546,43.5887 120.546,44.7554 111.5,45.5C 128.636,32.9277 147.303,22.9277 167.5,15.5C 167.735,16.0967 168.235,16.4301 169,16.5C 178.018,13.8281 187.185,12.3281 196.5,12C 188.738,14.9428 180.738,17.2762 172.5,19C 180.444,18.0678 188.444,17.2345 196.5,16.5C 199.167,16.6667 201.833,16.8333 204.5,17C 203.167,17.6667 201.833,18.3333 200.5,19C 201.167,19.1667 201.833,19.3333 202.5,19.5C 209.778,17.5136 217.111,15.8469 224.5,14.5 Z"/></g>
<g><path style="opacity:1" fill="#45b346" d="M 227.5,21.5 C 232.815,22.4824 232.815,23.4824 227.5,24.5C 226.5,24.1667 225.5,23.8333 224.5,23.5C 225.602,22.8243 226.602,22.1577 227.5,21.5 Z"/></g>
<g><path style="opacity:1" fill="#cae1cf" d="M 345.5,16.5 C 358.993,20.915 371.66,26.915 383.5,34.5C 376.545,33.844 369.878,32.1773 363.5,29.5C 362.292,28.7659 360.959,28.4326 359.5,28.5C 357.861,27.5275 356.527,26.1942 355.5,24.5C 355.5,23.5 355.5,22.5 355.5,21.5C 350.832,20.111 346.165,18.611 341.5,17C 342.793,16.51 344.127,16.3433 345.5,16.5 Z"/></g>
<g><path style="opacity:1" fill="#45b346" d="M 355.5,24.5 C 356.527,26.1942 357.861,27.5275 359.5,28.5C 359.167,29.5 358.5,30.1667 357.5,30.5C 355.704,29.2073 354.037,27.7073 352.5,26C 353.244,24.9614 354.244,24.4614 355.5,24.5 Z"/></g>
<g><path style="opacity:1" fill="#af45b2" d="M 359.5,28.5 C 360.959,28.4326 362.292,28.7659 363.5,29.5C 363.859,31.371 364.859,32.871 366.5,34C 373.199,36.1937 377.199,40.6937 378.5,47.5C 373.666,48.1787 372.333,50.8453 374.5,55.5C 383.922,61.7845 384.922,69.1179 377.5,77.5C 376.518,75.5939 375.518,73.5939 374.5,71.5C 369.977,69.4083 368.477,66.0749 370,61.5C 368.008,60.6719 366.508,59.3386 365.5,57.5C 366.795,55.6283 366.628,53.9617 365,52.5C 364.768,53.7375 364.268,54.7375 363.5,55.5C 359.346,52.8161 358.679,50.1494 361.5,47.5C 362.077,44.3551 364.077,42.8551 367.5,43C 364.035,40.5374 360.869,37.7041 358,34.5C 357.544,33.2559 358.044,32.4226 359.5,32C 358.584,31.7216 357.918,31.2216 357.5,30.5C 358.5,30.1667 359.167,29.5 359.5,28.5 Z"/></g>
<g><path style="opacity:1" fill="#46b048" d="M 363.5,29.5 C 369.878,32.1773 376.545,33.844 383.5,34.5C 387.173,36.0002 390.506,38.0002 393.5,40.5C 392.472,40.9258 391.139,40.9258 389.5,40.5C 388.079,46.058 384.412,48.3913 378.5,47.5C 377.199,40.6937 373.199,36.1937 366.5,34C 364.859,32.871 363.859,31.371 363.5,29.5 Z"/></g>
<g><path style="opacity:1" fill="#8bc1ba" d="M 93.5,90.5 C 87.8187,90.5768 82.9853,88.5768 79,84.5C 78.51,83.2068 78.3433,81.8734 78.5,80.5C 81.5073,76.4888 84.0073,72.1555 86,67.5C 90.3333,63.8333 94.6667,60.1667 99,56.5C 99.6917,55.5632 99.525,54.8966 98.5,54.5C 102.553,51.1173 106.886,48.1173 111.5,45.5C 120.546,44.7554 129.546,43.5887 138.5,42C 154.504,37.9974 170.504,34.3308 186.5,31C 184.695,33.4029 182.362,35.0695 179.5,36C 164.344,41.2738 149.344,46.9405 134.5,53C 126.446,63.3877 118.779,74.0543 111.5,85C 106.055,88.6938 100.055,90.5272 93.5,90.5 Z"/></g>
<g><path style="opacity:1" fill="#41a647" d="M 396.5,42.5 C 399.149,44.14 401.816,45.8067 404.5,47.5C 400.356,48.7931 396.69,47.7931 393.5,44.5C 394.357,43.5748 395.357,42.9081 396.5,42.5 Z"/></g>
<g><path style="opacity:1" fill="#ddedde" d="M 393.5,40.5 C 394.71,40.9321 395.71,41.5987 396.5,42.5C 395.357,42.9081 394.357,43.5748 393.5,44.5C 396.69,47.7931 400.356,48.7931 404.5,47.5C 407.72,49.6029 410.72,51.9362 413.5,54.5C 411.533,54.2606 409.699,54.5939 408,55.5C 406.908,70.5592 413.742,76.0592 428.5,72C 429.381,71.2917 430.047,70.4584 430.5,69.5C 433.06,71.2733 435.393,73.2733 437.5,75.5C 436.596,76.209 436.263,77.209 436.5,78.5C 434.885,81.4495 432.885,84.1162 430.5,86.5C 428.833,87.5 427.5,88.8333 426.5,90.5C 425.094,90.9731 424.427,91.9731 424.5,93.5C 422.359,96.4718 419.692,98.9718 416.5,101C 408.161,106.669 399.161,111.002 389.5,114C 381.864,115.895 375.364,114.061 370,108.5C 368.921,103.171 366.421,98.6713 362.5,95C 363.278,92.6101 364.445,90.4434 366,88.5C 368.998,86.6671 371.498,84.3338 373.5,81.5C 375.167,80.5 376.5,79.1667 377.5,77.5C 384.922,69.1179 383.922,61.7845 374.5,55.5C 372.333,50.8453 373.666,48.1787 378.5,47.5C 384.412,48.3913 388.079,46.058 389.5,40.5C 391.139,40.9258 392.472,40.9258 393.5,40.5 Z"/></g>
<g><path style="opacity:1" fill="#afd4c3" d="M 293.5,44.5 C 297.226,44.1774 300.893,44.5108 304.5,45.5C 288.139,51.6756 271.473,57.1756 254.5,62C 248.756,63.4823 242.923,64.3156 237,64.5C 233.431,64.7139 230.098,64.0473 227,62.5C 226.254,59.2106 227.42,56.7106 230.5,55C 233.674,53.2752 237.007,51.9419 240.5,51C 258.291,48.6619 275.958,46.4953 293.5,44.5 Z"/></g>
<g><path style="opacity:1" fill="#45b346" d="M 361.5,47.5 C 358.679,50.1494 359.346,52.8161 363.5,55.5C 363.027,56.9063 362.027,57.573 360.5,57.5C 358.912,56.3647 358.579,55.0314 359.5,53.5C 356.426,49.9066 357.093,47.9066 361.5,47.5 Z"/></g>
<g><path style="opacity:1" fill="#cbe3d0" d="M 360.5,57.5 C 362.027,57.573 363.027,56.9063 363.5,55.5C 364.268,54.7375 364.768,53.7375 365,52.5C 366.628,53.9617 366.795,55.6283 365.5,57.5C 363.833,58.5 362.5,59.8333 361.5,61.5C 359.513,62.1642 357.846,63.3308 356.5,65C 359.394,65.8686 360.561,67.7019 360,70.5C 352.566,76.8485 344.233,78.1819 335,74.5C 333.333,74.8333 331.667,75.1667 330,75.5C 326.518,74.033 323.018,72.533 319.5,71C 308.781,69.1402 298.115,69.1402 287.5,71C 294.695,67.3946 302.362,65.8946 310.5,66.5C 320.559,67.106 330.559,67.9393 340.5,69C 341.672,68.5814 342.672,67.9147 343.5,67C 341.91,65.9542 340.41,64.7875 339,63.5C 338.603,56.2259 342.103,52.3926 349.5,52C 343.992,54.3316 343.325,57.3316 347.5,61C 352.359,61.5363 356.693,60.3697 360.5,57.5 Z"/></g>
<g><path style="opacity:1" fill="#112d29" d="M 98.5,54.5 C 99.525,54.8966 99.6917,55.5632 99,56.5C 94.6667,60.1667 90.3333,63.8333 86,67.5C 84.0073,72.1555 81.5073,76.4888 78.5,80.5C 77.8826,80.3893 77.3826,80.056 77,79.5C 73.4025,83.0971 69.9025,86.0971 66.5,88.5C 62.1667,92.5 57.8333,96.5 53.5,100.5C 65.77,82.5626 80.77,67.2293 98.5,54.5 Z"/></g>
<g><path style="opacity:1" fill="#48b049" d="M 413.5,54.5 C 419.771,58.8041 425.437,63.8041 430.5,69.5C 430.047,70.4584 429.381,71.2917 428.5,72C 413.742,76.0592 406.908,70.5592 408,55.5C 409.699,54.5939 411.533,54.2606 413.5,54.5 Z"/></g>
<g><path style="opacity:1" fill="#45b346" d="M 365.5,57.5 C 366.508,59.3386 368.008,60.6719 370,61.5C 368.477,66.0749 369.977,69.4083 374.5,71.5C 375.518,73.5939 376.518,75.5939 377.5,77.5C 376.5,79.1667 375.167,80.5 373.5,81.5C 368.466,75.4279 364.466,68.7613 361.5,61.5C 362.5,59.8333 363.833,58.5 365.5,57.5 Z"/></g>
<g><path style="opacity:1" fill="#582239" d="M 167.5,67.5 C 168.833,67.5 170.167,67.5 171.5,67.5C 171.833,69.5 172.167,71.5 172.5,73.5C 170.181,72.833 167.847,72.6664 165.5,73C 161.501,77.8164 159.667,76.9831 160,70.5C 162.378,69.0331 164.878,68.0331 167.5,67.5 Z"/></g>
<g><path style="opacity:1" fill="#582239" d="M 128.5,84.5 C 127.609,85.1098 126.609,85.4431 125.5,85.5C 123.798,81.8365 124.798,79.0031 128.5,77C 130.698,76.6271 132.865,76.1271 135,75.5C 135.5,75.8333 136,76.1667 136.5,76.5C 133.479,78.8544 130.812,81.5211 128.5,84.5 Z"/></g>
<g><path style="opacity:1" fill="#44b147" d="M 436.5,78.5 C 438.636,80.8123 440.636,83.3123 442.5,86C 441.692,86.3076 441.025,86.8076 440.5,87.5C 441.747,89.4971 442.581,91.4971 443,93.5C 442,92.5 441,91.5 440,90.5C 439.667,91.1667 439.333,91.8333 439,92.5C 438.184,91.1772 437.017,90.5106 435.5,90.5C 433.833,89.1667 432.167,87.8333 430.5,86.5C 432.885,84.1162 434.885,81.4495 436.5,78.5 Z"/></g>
<g><path style="opacity:1" fill="#35824d" d="M 437.5,75.5 C 452.591,90.3616 465.258,107.028 475.5,125.5C 474.363,124.211 473.03,123.211 471.5,122.5C 470.91,121.234 470.41,119.901 470,118.5C 469.31,117.262 468.81,117.262 468.5,118.5C 466.537,117.04 464.704,115.373 463,113.5C 462.692,114.308 462.192,114.975 461.5,115.5C 460.264,114.754 458.93,114.421 457.5,114.5C 449.146,107.477 441.813,99.4775 435.5,90.5C 437.017,90.5106 438.184,91.1772 439,92.5C 439.333,91.8333 439.667,91.1667 440,90.5C 441,91.5 442,92.5 443,93.5C 442.581,91.4971 441.747,89.4971 440.5,87.5C 441.025,86.8076 441.692,86.3076 442.5,86C 440.636,83.3123 438.636,80.8123 436.5,78.5C 436.263,77.209 436.596,76.209 437.5,75.5 Z"/></g>
<g><path style="opacity:1" fill="#235a45" d="M 78.5,80.5 C 78.3433,81.8734 78.51,83.2068 79,84.5C 82.9853,88.5768 87.8187,90.5768 93.5,90.5C 89.5775,95.9276 85.0775,100.928 80,105.5C 75.2877,115.252 69.7877,124.585 63.5,133.5C 63.7093,134.086 64.0426,134.586 64.5,135C 62.0354,137.177 61.0354,139.677 61.5,142.5C 64.8574,142.191 68.1907,141.858 71.5,141.5C 71.0405,144.877 70.3739,148.211 69.5,151.5C 66.3785,149.552 63.3785,147.385 60.5,145C 54.6617,143.458 48.995,141.458 43.5,139C 40.589,136.01 38.589,132.51 37.5,128.5C 39.2503,127.341 40.2503,125.674 40.5,123.5C 44.0312,117.122 48.1979,111.122 53,105.5C 53.6914,107.891 54.6914,107.891 56,105.5C 58.8425,100.481 62.1759,95.8145 66,91.5C 66.4828,90.552 66.6495,89.552 66.5,88.5C 69.9025,86.0971 73.4025,83.0971 77,79.5C 77.3826,80.056 77.8826,80.3893 78.5,80.5 Z"/></g>
<g><path style="opacity:1" fill="#8ac0b9" d="M 128.5,84.5 C 131.393,84.6322 133.726,85.7988 135.5,88C 130.797,92.4332 125.464,93.4332 119.5,91C 118.273,89.4126 118.606,88.0793 120.5,87C 122.025,85.9914 123.692,85.4914 125.5,85.5C 126.609,85.4431 127.609,85.1098 128.5,84.5 Z"/></g>
<g><path style="opacity:1" fill="#af44b3" d="M 430.5,86.5 C 432.167,87.8333 433.833,89.1667 435.5,90.5C 441.813,99.4775 449.146,107.477 457.5,114.5C 458.429,115.315 459.429,116.148 460.5,117C 459.906,117.464 459.239,117.631 458.5,117.5C 457.609,116.89 456.609,116.557 455.5,116.5C 453.736,115.098 451.736,114.265 449.5,114C 448.934,113.005 448.267,112.172 447.5,111.5C 444.326,104.826 439.326,99.9931 432.5,97C 430.294,94.9633 428.294,92.7966 426.5,90.5C 427.5,88.8333 428.833,87.5 430.5,86.5 Z"/></g>
<g><path style="opacity:1" fill="#44b247" d="M 320.5,106.5 C 318.04,106.301 315.707,105.635 313.5,104.5C 313.863,103.817 314.196,103.15 314.5,102.5C 319.287,95.2767 325.954,91.4433 334.5,91C 336.884,93.3792 338.384,96.2125 339,99.5C 343.114,102.469 347.28,105.302 351.5,108C 353.037,109.11 353.703,110.61 353.5,112.5C 350.039,112.854 347.539,111.521 346,108.5C 344.667,110.833 342.667,111.833 340,111.5C 333.69,109.095 327.19,107.429 320.5,106.5 Z"/></g>
<g><path style="opacity:1" fill="#34864d" d="M 426.5,90.5 C 428.294,92.7966 430.294,94.9633 432.5,97C 439.326,99.9931 444.326,104.826 447.5,111.5C 444.404,110.24 442.071,108.074 440.5,105C 437.623,103.873 434.623,103.206 431.5,103C 429.024,99.8546 426.69,96.688 424.5,93.5C 424.427,91.9731 425.094,90.9731 426.5,90.5 Z"/></g>
<g><path style="opacity:1" fill="#3e954a" d="M 66.5,88.5 C 66.6495,89.552 66.4828,90.552 66,91.5C 62.1759,95.8145 58.8425,100.481 56,105.5C 54.6914,107.891 53.6914,107.891 53,105.5C 48.1979,111.122 44.0312,117.122 40.5,123.5C 38.5,125.167 36.5,126.833 34.5,128.5C 39.3518,118.12 45.6851,108.786 53.5,100.5C 57.8333,96.5 62.1667,92.5 66.5,88.5 Z"/></g>
<g><path style="opacity:1" fill="#8bc2ba" d="M 137.5,97.5 C 155.977,94.613 171.977,99.4463 185.5,112C 189.918,113.806 194.251,115.806 198.5,118C 204.116,123.086 204.949,128.919 201,135.5C 197.09,141.536 191.59,144.536 184.5,144.5C 185.786,140.923 186.786,137.256 187.5,133.5C 187.485,131.366 186.985,129.366 186,127.5C 182.248,124.371 178.081,121.871 173.5,120C 162.603,105.482 148.603,101.482 131.5,108C 127.673,109.746 124.007,111.746 120.5,114C 116.912,114.611 115.746,113.111 117,109.5C 122.478,103.017 129.311,99.0168 137.5,97.5 Z"/></g>
<g><path style="opacity:1" fill="#34864d" d="M 358.5,106.5 C 363.593,108.425 367.26,111.925 369.5,117C 368.833,118 368.167,119 367.5,120C 361.332,121.354 355.666,120.354 350.5,117C 354.532,114.477 357.198,110.977 358.5,106.5 Z"/></g>
<g><path style="opacity:1" fill="#c5e0cc" d="M 424.5,110.5 C 431.511,110.295 434.845,113.795 434.5,121C 433.574,126.685 431.408,131.851 428,136.5C 422.802,142.033 417.302,147.2 411.5,152C 406.088,155.394 400.422,156.06 394.5,154C 392.703,152.406 391.703,150.406 391.5,148C 393.94,137.878 399.273,129.545 407.5,123C 413.068,118.584 418.735,114.417 424.5,110.5 Z"/></g>
<g><path style="opacity:1" fill="#45b346" d="M 455.5,116.5 C 456.609,116.557 457.609,116.89 458.5,117.5C 460.1,118.644 461.767,119.811 463.5,121C 461.893,120.981 460.226,120.815 458.5,120.5C 457.167,120.5 456.5,121.167 456.5,122.5C 455.539,120.735 455.205,118.735 455.5,116.5 Z"/></g>
<g><path style="opacity:1" fill="#e2f0e1" d="M 423.5,120.5 C 425.38,121.078 426.38,122.412 426.5,124.5C 425.901,127.702 424.734,130.702 423,133.5C 419.5,137 416,140.5 412.5,144C 405.861,147.371 402.694,145.537 403,138.5C 407.823,130.175 414.656,124.175 423.5,120.5 Z"/></g>
<g><path style="opacity:1" fill="#45b346" d="M 468.5,121.5 C 468.068,122.71 467.401,123.71 466.5,124.5C 464.618,123.763 463.952,122.596 464.5,121C 465.819,120.805 467.153,120.972 468.5,121.5 Z"/></g>
<g><path style="opacity:1" fill="#bdd6c4" d="M 458.5,120.5 C 459.949,123.051 459.615,125.385 457.5,127.5C 455.296,126.218 454.962,124.551 456.5,122.5C 456.5,121.167 457.167,120.5 458.5,120.5 Z"/></g>
<g><path style="opacity:1" fill="#45b147" d="M 471.5,122.5 C 473.03,123.211 474.363,124.211 475.5,125.5C 488.71,146.105 498.043,168.439 503.5,192.5C 501.776,188.858 499.942,185.192 498,181.5C 496.117,182.653 495.284,184.319 495.5,186.5C 494.833,186.167 494.167,185.833 493.5,185.5C 493.477,183.073 492.977,180.74 492,178.5C 491.637,181.544 491.137,184.544 490.5,187.5C 488.355,189.91 487.688,192.577 488.5,195.5C 488.326,197.861 487.993,200.194 487.5,202.5C 479.228,213.118 470.895,223.785 462.5,234.5C 458.488,228.458 457.488,221.791 459.5,214.5C 467.076,204.014 473.076,192.681 477.5,180.5C 478.859,179.993 479.859,178.993 480.5,177.5C 481.086,177.709 481.586,178.043 482,178.5C 482.471,176.754 483.138,175.087 484,173.5C 485,175.5 486,177.5 487,179.5C 486.167,172.166 485,164.833 483.5,157.5C 484.212,158.739 485.212,159.239 486.5,159C 485.601,157.348 484.601,155.848 483.5,154.5C 483.34,152.847 482.674,151.514 481.5,150.5C 481.573,148.973 480.906,147.973 479.5,147.5C 478.674,144.515 477.341,141.849 475.5,139.5C 475.672,138.508 475.338,137.842 474.5,137.5C 472.771,132.703 471.771,127.703 471.5,122.5 Z"/></g>
<g><path style="opacity:1" fill="#112d2a" d="M 40.5,123.5 C 40.2503,125.674 39.2503,127.341 37.5,128.5C 36.9035,129.935 36.9035,131.602 37.5,133.5C 36.6663,140.625 34.333,147.292 30.5,153.5C 28.1441,156.715 26.6441,160.381 26,164.5C 25.7471,169.039 25.2471,173.539 24.5,178C 25.6458,178.759 26.6458,179.426 27.5,180C 26.7665,181.766 26.4332,183.599 26.5,185.5C 26.2488,187.17 25.5822,188.67 24.5,190C 25.3894,195.448 25.2227,200.948 24,206.5C 23.7599,208.852 22.9265,210.852 21.5,212.5C 22.3635,210.105 22.3635,207.771 21.5,205.5C 19.8539,206.779 18.6872,208.445 18,210.5C 17.5931,213.682 17.0931,216.849 16.5,220C 16.3866,221.699 17.0532,222.866 18.5,223.5C 17.8902,224.391 17.5569,225.391 17.5,226.5C 16.6019,228.905 15.1019,230.905 13,232.5C 12.4652,236.038 11.6319,239.372 10.5,242.5C 9.2732,244.632 8.2732,246.966 7.5,249.5C 9.32556,253.025 11.4922,255.692 14,257.5C 20.7815,256.881 24.6149,252.881 25.5,245.5C 26.552,245.649 27.552,245.483 28.5,245C 33.2445,239.774 36.9112,233.941 39.5,227.5C 46.554,238.616 51.7207,250.616 55,263.5C 56,265.167 57,266.833 58,268.5C 74.3044,285.805 90.971,302.805 108,319.5C 109.029,323.635 109.529,327.802 109.5,332C 129.099,334.493 148.765,336.326 168.5,337.5C 178.35,337.809 187.683,335.809 196.5,331.5C 205.918,336.317 215.918,338.984 226.5,339.5C 227.339,340.641 228.006,341.974 228.5,343.5C 226.517,345.024 224.184,346.024 221.5,346.5C 224.398,350.853 223.732,354.686 219.5,358C 214.261,358.952 209.928,361.452 206.5,365.5C 209.53,371.398 208.863,376.898 204.5,382C 201.167,382.333 197.833,382.667 194.5,383C 193.57,384.194 192.903,385.527 192.5,387C 197.118,392.78 202.784,397.28 209.5,400.5C 209.519,402.06 209.852,403.56 210.5,405C 208.757,407.019 207.59,409.186 207,411.5C 209.5,414.667 212,417.833 214.5,421C 216.608,421.36 218.608,422.027 220.5,423C 223.326,428.496 227.826,431.329 234,431.5C 237.827,430.761 241.66,430.594 245.5,431C 251.9,435.201 258.9,437.701 266.5,438.5C 266.369,439.376 266.702,440.043 267.5,440.5C 270.582,441.635 273.582,442.635 276.5,443.5C 261.34,445.103 246.34,447.603 231.5,451C 228.821,452.346 226.821,454.346 225.5,457C 226.154,458.987 227.487,460.32 229.5,461C 238.766,462.678 247.933,462.178 257,459.5C 256.95,461.752 255.784,463.418 253.5,464.5C 257.53,465.135 261.53,464.635 265.5,463C 273.233,457.133 281.567,452.3 290.5,448.5C 298.874,451.374 307.207,451.041 315.5,447.5C 313.57,451.266 310.736,454.266 307,456.5C 307.083,459.119 307.25,461.786 307.5,464.5C 312.249,462.92 315.582,459.754 317.5,455C 317.043,454.586 316.709,454.086 316.5,453.5C 319.429,449.306 322.095,444.973 324.5,440.5C 327.643,439.866 330.143,438.2 332,435.5C 332.711,430.703 334.211,426.203 336.5,422C 339.928,422.599 343.428,423.432 347,424.5C 348.561,424.397 350.061,424.063 351.5,423.5C 353.75,419.708 357.083,418.042 361.5,418.5C 362.461,421.426 363.127,424.426 363.5,427.5C 369.395,427.443 375.062,426.276 380.5,424C 380.962,422.278 381.128,420.445 381,418.5C 383.833,417 386,414.833 387.5,412C 389.179,411.605 390.845,411.772 392.5,412.5C 393.938,412.281 395.271,411.781 396.5,411C 401.344,406.158 405.344,400.658 408.5,394.5C 408.081,393.328 407.415,392.328 406.5,391.5C 401.222,394.207 396.222,397.373 391.5,401C 387.931,401.146 384.598,401.98 381.5,403.5C 377.199,403.543 372.866,403.21 368.5,402.5C 365.784,402.961 363.118,403.627 360.5,404.5C 357.534,402.012 354.201,400.012 350.5,398.5C 347.225,392.53 348.892,388.363 355.5,386C 358.339,381.908 362.006,378.741 366.5,376.5C 368.361,377.528 369.695,379.028 370.5,381C 373.257,381.782 375.757,381.282 378,379.5C 379.306,376.388 380.472,373.221 381.5,370C 381.22,368.605 380.553,367.438 379.5,366.5C 375.156,365.89 370.822,365.556 366.5,365.5C 363.526,365.988 361.193,367.488 359.5,370C 355.151,370.668 351.484,372.668 348.5,376C 343.919,376.485 339.419,375.985 335,374.5C 331.426,374.768 327.926,375.435 324.5,376.5C 323.328,376.081 322.328,375.415 321.5,374.5C 317.543,378.145 312.876,380.145 307.5,380.5C 306.685,379.163 305.518,378.163 304,377.5C 303.517,376.552 303.351,375.552 303.5,374.5C 302.167,374.5 300.833,374.5 299.5,374.5C 302.437,372.344 305.771,370.844 309.5,370C 311.684,367.984 313.684,365.817 315.5,363.5C 314.624,362.749 313.624,362.249 312.5,362C 319.476,357.013 327.143,353.346 335.5,351C 339.335,347.661 342.668,343.828 345.5,339.5C 349.245,340.722 352.579,342.222 355.5,344C 356.071,341.389 356.904,338.889 358,336.5C 364.336,343.536 371.002,349.536 378,354.5C 378.333,354.167 378.667,353.833 379,353.5C 381,355.5 383,357.5 385,359.5C 385.333,359.167 385.667,358.833 386,358.5C 387.667,360.167 389.333,361.833 391,363.5C 391.333,363.167 391.667,362.833 392,362.5C 395,364.833 398,367.167 401,369.5C 402.566,368.939 403.899,369.606 405,371.5C 406.566,370.939 407.899,371.606 409,373.5C 410.566,372.939 411.899,373.606 413,375.5C 414.566,374.939 415.899,375.606 417,377.5C 418.147,376.542 419.147,376.875 420,378.5C 421.147,377.542 422.147,377.875 423,379.5C 423.333,379.167 423.667,378.833 424,378.5C 425.667,379.5 427.333,380.5 429,381.5C 430.147,380.542 431.147,380.875 432,382.5C 433,382.167 434,381.833 435,381.5C 436.632,382.528 438.132,383.528 439.5,384.5C 414.041,418.46 384.374,448.293 350.5,474C 360.203,472.323 369.203,468.657 377.5,463C 398.095,450.743 415.928,435.243 431,416.5C 437.122,409.255 440.789,400.922 442,391.5C 443.697,388.98 445.53,386.647 447.5,384.5C 451.716,384.264 455.882,384.264 460,384.5C 460.667,383.833 461.333,383.167 462,382.5C 463.333,382.5 464.667,382.5 466,382.5C 466.833,381.667 467.667,380.833 468.5,380C 467.167,379 467.167,378 468.5,377C 466.567,376.749 464.734,376.249 463,375.5C 462.586,375.957 462.086,376.291 461.5,376.5C 460.571,375.311 460.238,373.978 460.5,372.5C 458.784,372.629 457.117,372.962 455.5,373.5C 458.336,367.822 461.669,362.489 465.5,357.5C 468.987,358.483 470.32,360.817 469.5,364.5C 472.385,363.455 474.552,361.455 476,358.5C 476.308,359.308 476.808,359.975 477.5,360.5C 480.55,357.566 481.717,358.232 481,362.5C 480.282,361.549 479.449,361.383 478.5,362C 472.993,370.092 473.826,370.592 481,363.5C 481.333,363.833 481.667,364.167 482,364.5C 482.181,361.305 482.681,358.305 483.5,355.5C 484.531,356.249 485.698,356.915 487,357.5C 488.205,359.196 488.705,360.863 488.5,362.5C 462.167,420.167 420.167,462.167 362.5,488.5C 345.543,494.421 328.043,499.754 310,504.5C 309.5,504.333 309,504.167 308.5,504C 312.945,502.059 313.112,500.892 309,500.5C 286.128,505.791 262.961,508.791 239.5,509.5C 236.977,509.331 234.477,508.998 232,508.5C 230.124,508.525 228.624,509.191 227.5,510.5C 210.627,508.728 194.293,505.061 178.5,499.5C 179.552,499.649 180.552,499.483 181.5,499C 164.705,493.57 148.372,487.07 132.5,479.5C 129.669,478.921 127.336,477.588 125.5,475.5C 126.496,475.414 127.329,475.748 128,476.5C 126.252,472.717 123.586,469.384 120,466.5C 120.195,468.745 121.362,470.578 123.5,472C 121.981,471.669 120.648,471.836 119.5,472.5C 49.769,426.774 10.269,362.107 1,278.5C -3.56626,224.813 7.6004,174.813 34.5,128.5C 36.5,126.833 38.5,125.167 40.5,123.5 Z"/></g>
<g><path style="opacity:1" fill="#ccded0" d="M 471.5,122.5 C 471.771,127.703 472.771,132.703 474.5,137.5C 473.603,138.598 472.77,138.598 472,137.5C 471.261,135.779 470.427,134.113 469.5,132.5C 468.359,135.062 467.526,137.728 467,140.5C 466.667,140.167 466.333,139.833 466,139.5C 465.502,134.481 465.668,129.481 466.5,124.5C 467.401,123.71 468.068,122.71 468.5,121.5C 468.5,120.5 468.5,119.5 468.5,118.5C 468.81,117.262 469.31,117.262 470,118.5C 470.41,119.901 470.91,121.234 471.5,122.5 Z"/></g>
<g><path style="opacity:1" fill="#8bc2ba" d="M 37.5,128.5 C 38.589,132.51 40.589,136.01 43.5,139C 48.995,141.458 54.6617,143.458 60.5,145C 63.3785,147.385 66.3785,149.552 69.5,151.5C 73.6512,154.803 77.9845,157.97 82.5,161C 78.2147,160.304 73.8814,159.471 69.5,158.5C 62.2825,157.205 55.2825,154.872 48.5,151.5C 46.9957,147.486 44.4957,144.152 41,141.5C 39.5462,138.929 38.3795,136.262 37.5,133.5C 36.9035,131.602 36.9035,129.935 37.5,128.5 Z"/></g>
<g><path style="opacity:1" fill="#215843" d="M 37.5,133.5 C 38.3795,136.262 39.5462,138.929 41,141.5C 44.4957,144.152 46.9957,147.486 48.5,151.5C 55.2825,154.872 62.2825,157.205 69.5,158.5C 68.2342,160.895 67.5676,163.562 67.5,166.5C 70.5497,174.719 69.5497,182.385 64.5,189.5C 55.7639,190.4 47.0973,191.734 38.5,193.5C 36.8586,198.01 35.8586,202.676 35.5,207.5C 36.2038,214.312 37.5372,220.978 39.5,227.5C 36.9112,233.941 33.2445,239.774 28.5,245C 27.552,245.483 26.552,245.649 25.5,245.5C 24.6149,252.881 20.7815,256.881 14,257.5C 11.4922,255.692 9.32556,253.025 7.5,249.5C 8.2732,246.966 9.2732,244.632 10.5,242.5C 10.7828,243.289 11.2828,243.956 12,244.5C 13.799,240.117 15.799,235.783 18,231.5C 18.7796,229.613 18.6129,227.946 17.5,226.5C 17.5569,225.391 17.8902,224.391 18.5,223.5C 18.7642,219.508 19.7642,215.841 21.5,212.5C 22.9265,210.852 23.7599,208.852 24,206.5C 25.2227,200.948 25.3894,195.448 24.5,190C 25.5822,188.67 26.2488,187.17 26.5,185.5C 27.4584,185.047 28.2917,184.381 29,183.5C 29.7733,179.847 30.9399,176.347 32.5,173C 32.4609,170.703 32.1276,168.37 31.5,166C 32.1667,164.333 32.8333,162.667 33.5,161C 32.1667,160 30.8333,159 29.5,158C 30.3802,156.644 30.7135,155.144 30.5,153.5C 34.333,147.292 36.6663,140.625 37.5,133.5 Z"/></g>
<g><path style="opacity:1" fill="#af44b3" d="M 475.5,139.5 C 477.341,141.849 478.674,144.515 479.5,147.5C 477.926,146.016 476.593,144.349 475.5,142.5C 475.5,141.5 475.5,140.5 475.5,139.5 Z"/></g>
<g><path style="opacity:1" fill="#45b346" d="M 475.5,142.5 C 476.593,144.349 477.926,146.016 479.5,147.5C 479.5,148.167 479.5,148.833 479.5,149.5C 476.888,147.948 475.555,145.614 475.5,142.5 Z"/></g>
<g><path style="opacity:1" fill="#af44b3" d="M 479.5,147.5 C 480.906,147.973 481.573,148.973 481.5,150.5C 480.833,150.167 480.167,149.833 479.5,149.5C 479.5,148.833 479.5,148.167 479.5,147.5 Z"/></g>
<g><path style="opacity:1" fill="#112d29" d="M 362.5,152.5 C 364.401,150.126 366.735,149.959 369.5,152C 371.336,154.493 372.336,157.326 372.5,160.5C 368.579,161.07 366.412,159.403 366,155.5C 364.961,154.29 363.794,153.29 362.5,152.5 Z"/></g>
<g><path style="opacity:1" fill="#34864d" d="M 30.5,153.5 C 30.7135,155.144 30.3802,156.644 29.5,158C 30.8333,159 32.1667,160 33.5,161C 32.8333,162.667 32.1667,164.333 31.5,166C 32.1276,168.37 32.4609,170.703 32.5,173C 30.9399,176.347 29.7733,179.847 29,183.5C 28.2917,184.381 27.4584,185.047 26.5,185.5C 26.4332,183.599 26.7665,181.766 27.5,180C 26.6458,179.426 25.6458,178.759 24.5,178C 25.2471,173.539 25.7471,169.039 26,164.5C 26.6441,160.381 28.1441,156.715 30.5,153.5 Z"/></g>
<g><path style="opacity:1" fill="#af44b3" d="M 483.5,154.5 C 484.601,155.848 485.601,157.348 486.5,159C 485.212,159.239 484.212,158.739 483.5,157.5C 483.5,156.5 483.5,155.5 483.5,154.5 Z"/></g>
<g><path style="opacity:1" fill="#225943" d="M 309.5,180.5 C 298.167,185.167 286.833,189.833 275.5,194.5C 270.084,196.305 264.751,198.305 259.5,200.5C 257.728,196.888 255.728,193.388 253.5,190C 254.224,185.232 254.39,180.398 254,175.5C 258.283,172.885 262.283,169.885 266,166.5C 266.085,162.72 267.585,159.72 270.5,157.5C 274.972,160.802 279.805,163.468 285,165.5C 286.682,164.135 286.849,162.635 285.5,161C 287.035,160.504 288.535,160.67 290,161.5C 297.836,155.336 304.169,156.67 309,165.5C 309.143,170.602 309.31,175.602 309.5,180.5 Z"/></g>
<g><path style="opacity:1" fill="#deedde" d="M 477.5,180.5 C 473.076,192.681 467.076,204.014 459.5,214.5C 453.199,220.97 447.033,227.637 441,234.5C 438.01,241.15 434.51,247.484 430.5,253.5C 422.91,263.764 414.91,273.764 406.5,283.5C 398.714,290.888 390.381,297.554 381.5,303.5C 382.218,301.863 382.384,300.197 382,298.5C 380.342,296.677 378.509,295.01 376.5,293.5C 373.154,294.505 369.821,295.505 366.5,296.5C 368.5,294.833 370.5,293.167 372.5,291.5C 380.288,286.382 386.288,279.715 390.5,271.5C 398.985,262.348 406.318,252.348 412.5,241.5C 416.593,235.895 418.926,229.562 419.5,222.5C 417.692,222.491 416.025,222.991 414.5,224C 409.63,228.702 404.963,233.535 400.5,238.5C 390.153,251.512 378.819,263.512 366.5,274.5C 361.443,277.355 356.777,280.688 352.5,284.5C 351.609,285.11 350.609,285.443 349.5,285.5C 351.362,281.61 353.362,277.777 355.5,274C 353.966,273.077 352.299,272.577 350.5,272.5C 345.441,273.723 340.441,273.723 335.5,272.5C 356.784,260.568 375.45,245.235 391.5,226.5C 392.167,225.5 392.833,224.5 393.5,223.5C 401.5,216.167 409.167,208.5 416.5,200.5C 421.605,196.772 426.939,193.272 432.5,190C 440.423,188.884 448.09,186.884 455.5,184C 461.791,176.594 466.958,168.427 471,159.5C 472.295,157.878 473.795,156.545 475.5,155.5C 476.647,155.818 477.481,156.484 478,157.5C 479.832,165.192 479.665,172.859 477.5,180.5 Z"/></g>
<g><path style="opacity:1" fill="#af44b3" d="M 489.5,166.5 C 490.222,166.918 490.722,167.584 491,168.5C 491.333,168.167 491.667,167.833 492,167.5C 492.707,169.081 493.54,170.581 494.5,172C 493.692,172.308 493.025,172.808 492.5,173.5C 493.326,174.451 493.492,175.451 493,176.5C 491.984,175.366 491.317,175.699 491,177.5C 489.663,173.974 489.163,170.308 489.5,166.5 Z"/></g>
<g><path style="opacity:1" fill="#112d29" d="M 268.5,168.5 C 269.873,168.343 271.207,168.51 272.5,169C 273.32,173.374 275.653,174.874 279.5,173.5C 279.85,177.474 278.183,180.14 274.5,181.5C 274.081,177.246 271.914,174.246 268,172.5C 267.421,171.072 267.588,169.738 268.5,168.5 Z"/></g>
<g><path style="opacity:1" fill="#c5dfcc" d="M 334.5,238.5 C 330.918,243.994 327.585,249.661 324.5,255.5C 323.402,256.397 323.402,257.23 324.5,258C 346.727,258.988 365.393,251.488 380.5,235.5C 383.895,232.098 387.562,229.098 391.5,226.5C 375.45,245.235 356.784,260.568 335.5,272.5C 325.346,269.017 318.013,262.35 313.5,252.5C 331.318,238.872 339.818,220.872 339,198.5C 336.129,194.984 332.629,192.317 328.5,190.5C 327.329,186.828 324.829,184.828 321,184.5C 307.102,188.927 293.268,193.261 279.5,197.5C 277.77,196.974 276.436,195.974 275.5,194.5C 286.833,189.833 298.167,185.167 309.5,180.5C 318.663,176.725 328.163,174.058 338,172.5C 340.814,172.408 343.147,173.408 345,175.5C 346.65,181.231 347.816,187.064 348.5,193C 345.548,208.69 340.881,223.856 334.5,238.5 Z"/></g>
<g><path style="opacity:1" fill="#245b45" d="M 503.5,192.5 C 503.511,197.17 504.511,201.503 506.5,205.5C 506.336,208.187 506.503,210.854 507,213.5C 507.383,214.056 507.883,214.389 508.5,214.5C 508.5,214.833 508.5,215.167 508.5,215.5C 507.5,215.5 506.5,215.5 505.5,215.5C 506.935,224.113 507.935,232.779 508.5,241.5C 508.664,244.187 508.497,246.854 508,249.5C 506.614,246.466 504.781,243.8 502.5,241.5C 501.978,245.365 500.978,248.365 499.5,250.5C 498.73,247.343 499.064,244.176 500.5,241C 495.551,229.704 492.885,217.87 492.5,205.5C 492.194,202.615 492.527,199.948 493.5,197.5C 494.847,196.829 496.014,196.829 497,197.5C 497.167,196.833 497.333,196.167 497.5,195.5C 496.414,192.58 495.748,189.58 495.5,186.5C 495.284,184.319 496.117,182.653 498,181.5C 499.942,185.192 501.776,188.858 503.5,192.5 Z"/></g>
<g><path style="opacity:1" fill="#e2f0e1" d="M 313.5,252.5 C 312.842,244.21 311.008,236.21 308,228.5C 301.031,222.532 294.364,216.199 288,209.5C 286.36,204.515 283.526,200.515 279.5,197.5C 293.268,193.261 307.102,188.927 321,184.5C 324.829,184.828 327.329,186.828 328.5,190.5C 332.629,192.317 336.129,194.984 339,198.5C 339.818,220.872 331.318,238.872 313.5,252.5 Z"/></g>
<g><path style="opacity:1" fill="#e2efe1" d="M 493.5,185.5 C 493.5,189.5 493.5,193.5 493.5,197.5C 492.527,199.948 492.194,202.615 492.5,205.5C 492.167,205.5 491.833,205.5 491.5,205.5C 483.08,229.045 474.58,252.712 466,276.5C 459.283,292.872 449.783,307.372 437.5,320C 434.794,318.679 431.794,317.846 428.5,317.5C 426.452,317.672 424.452,318.005 422.5,318.5C 428.377,311.417 432.711,303.417 435.5,294.5C 435.392,293.558 435.059,292.725 434.5,292C 432.402,292.032 430.402,292.699 428.5,294C 423.821,298.678 418.821,303.011 413.5,307C 411.564,307.813 409.564,308.313 407.5,308.5C 408.238,304.357 410.071,300.69 413,297.5C 435.96,270.898 457.96,243.565 479,215.5C 480.333,218.167 481.667,218.167 483,215.5C 485.079,211.347 486.579,207.014 487.5,202.5C 487.993,200.194 488.326,197.861 488.5,195.5C 489.531,193.039 490.198,190.373 490.5,187.5C 491.137,184.544 491.637,181.544 492,178.5C 492.977,180.74 493.477,183.073 493.5,185.5 Z"/></g>
<g><path style="opacity:1" fill="#33844d" d="M 493.5,185.5 C 494.167,185.833 494.833,186.167 495.5,186.5C 495.748,189.58 496.414,192.58 497.5,195.5C 497.333,196.167 497.167,196.833 497,197.5C 496.014,196.829 494.847,196.829 493.5,197.5C 493.5,193.5 493.5,189.5 493.5,185.5 Z"/></g>
<g><path style="opacity:1" fill="#225943" d="M 490.5,187.5 C 490.198,190.373 489.531,193.039 488.5,195.5C 487.688,192.577 488.355,189.91 490.5,187.5 Z"/></g>
<g><path style="opacity:1" fill="#8cc2bb" d="M 64.5,189.5 C 74.8379,195.332 85.8379,199.499 97.5,202C 114.603,204.428 131.603,207.261 148.5,210.5C 148.291,211.086 147.957,211.586 147.5,212C 142.833,212.333 138.167,212.667 133.5,213C 128.167,216.333 122.833,219.667 117.5,223C 114.045,225.779 111.379,229.112 109.5,233C 101.102,235.611 93.9356,240.111 88,246.5C 79.8195,264.615 84.9862,277.448 103.5,285C 105.482,288.614 107.649,292.114 110,295.5C 110.196,289.647 113.029,285.814 118.5,284C 138.212,281.37 151.546,289.204 158.5,307.5C 162.475,309.642 165.642,312.642 168,316.5C 168.667,318.833 168.667,321.167 168,323.5C 166.122,326.613 164.288,329.613 162.5,332.5C 167.192,332.076 171.525,330.576 175.5,328C 183.116,321.807 184.282,314.641 179,306.5C 174.355,302.345 169.355,298.678 164,295.5C 162.374,292.872 160.374,290.539 158,288.5C 157.018,287.241 156.685,285.908 157,284.5C 165.894,284.05 174.728,282.883 183.5,281C 194.698,275.798 200.865,266.964 202,254.5C 204.596,244.181 206.929,233.847 209,223.5C 214.015,217.909 220.182,214.242 227.5,212.5C 230.625,214.225 233.958,215.725 237.5,217C 244.956,226.791 252.789,236.291 261,245.5C 263.434,248.795 265.101,252.462 266,256.5C 266.332,267.84 269.999,277.84 277,286.5C 294.5,299.333 312,312.167 329.5,325C 330.167,325.667 330.833,326.333 331.5,327C 330.335,328.992 329.002,330.825 327.5,332.5C 311.912,339.18 295.579,341.68 278.5,340C 269.242,337.191 259.908,334.691 250.5,332.5C 242.223,334.33 234.223,336.663 226.5,339.5C 215.918,338.984 205.918,336.317 196.5,331.5C 187.683,335.809 178.35,337.809 168.5,337.5C 148.765,336.326 129.099,334.493 109.5,332C 109.529,327.802 109.029,323.635 108,319.5C 90.971,302.805 74.3044,285.805 58,268.5C 57,266.833 56,265.167 55,263.5C 51.7207,250.616 46.554,238.616 39.5,227.5C 37.5372,220.978 36.2038,214.312 35.5,207.5C 35.8586,202.676 36.8586,198.01 38.5,193.5C 47.0973,191.734 55.7639,190.4 64.5,189.5 Z"/></g>
<g><path style="opacity:1" fill="#a9d1c0" d="M 275.5,194.5 C 276.436,195.974 277.77,196.974 279.5,197.5C 283.526,200.515 286.36,204.515 288,209.5C 294.364,216.199 301.031,222.532 308,228.5C 311.008,236.21 312.842,244.21 313.5,252.5C 318.013,262.35 325.346,269.017 335.5,272.5C 340.441,273.723 345.441,273.723 350.5,272.5C 352.299,272.577 353.966,273.077 355.5,274C 353.362,277.777 351.362,281.61 349.5,285.5C 344.884,289.616 341.217,294.449 338.5,300C 339.549,302.698 341.549,304.198 344.5,304.5C 352.288,302.933 359.622,300.266 366.5,296.5C 369.821,295.505 373.154,294.505 376.5,293.5C 378.509,295.01 380.342,296.677 382,298.5C 382.384,300.197 382.218,301.863 381.5,303.5C 377.896,306.975 373.896,309.975 369.5,312.5C 363.998,316.085 358.331,319.419 352.5,322.5C 350.287,323.773 347.954,324.773 345.5,325.5C 340.512,328.042 335.512,330.375 330.5,332.5C 329.5,332.5 328.5,332.5 327.5,332.5C 329.002,330.825 330.335,328.992 331.5,327C 330.833,326.333 330.167,325.667 329.5,325C 312,312.167 294.5,299.333 277,286.5C 269.999,277.84 266.332,267.84 266,256.5C 265.101,252.462 263.434,248.795 261,245.5C 252.789,236.291 244.956,226.791 237.5,217C 233.958,215.725 230.625,214.225 227.5,212.5C 237.859,207.932 248.526,203.932 259.5,200.5C 264.751,198.305 270.084,196.305 275.5,194.5 Z"/></g>
<g><path style="opacity:1" fill="#3b984b" d="M 503.5,192.5 C 505.26,196.547 506.26,200.88 506.5,205.5C 504.511,201.503 503.511,197.17 503.5,192.5 Z"/></g>
<g><path style="opacity:1" fill="#c4decb" d="M 487.5,202.5 C 486.579,207.014 485.079,211.347 483,215.5C 481.667,218.167 480.333,218.167 479,215.5C 457.96,243.565 435.96,270.898 413,297.5C 410.071,300.69 408.238,304.357 407.5,308.5C 409.564,308.313 411.564,307.813 413.5,307C 418.821,303.011 423.821,298.678 428.5,294C 430.402,292.699 432.402,292.032 434.5,292C 435.059,292.725 435.392,293.558 435.5,294.5C 432.711,303.417 428.377,311.417 422.5,318.5C 418.5,318.5 414.5,318.5 410.5,318.5C 406.585,317.733 402.585,317.233 398.5,317C 398.043,316.586 397.709,316.086 397.5,315.5C 401.755,308.249 406.755,301.582 412.5,295.5C 421.122,284.209 430.122,273.209 439.5,262.5C 447.892,253.773 455.559,244.44 462.5,234.5C 470.895,223.785 479.228,213.118 487.5,202.5 Z"/></g>
<g><path style="opacity:1" fill="#34864d" d="M 21.5,212.5 C 19.7642,215.841 18.7642,219.508 18.5,223.5C 17.0532,222.866 16.3866,221.699 16.5,220C 17.0931,216.849 17.5931,213.682 18,210.5C 18.6872,208.445 19.8539,206.779 21.5,205.5C 22.3635,207.771 22.3635,210.105 21.5,212.5 Z"/></g>
<g><path style="opacity:1" fill="#32824d" d="M 491.5,205.5 C 491.833,205.5 492.167,205.5 492.5,205.5C 492.885,217.87 495.551,229.704 500.5,241C 499.064,244.176 498.73,247.343 499.5,250.5C 498.542,250.047 497.708,249.381 497,248.5C 496.338,249.984 495.504,251.317 494.5,252.5C 491.509,250.523 490.509,247.856 491.5,244.5C 489.757,242.679 488.257,240.679 487,238.5C 485.644,237.62 484.144,237.286 482.5,237.5C 483.304,234.421 484.304,231.421 485.5,228.5C 486.088,231.088 487.754,232.755 490.5,233.5C 492.291,233.038 493.291,231.871 493.5,230C 492.075,223.912 491.408,217.746 491.5,211.5C 491.5,209.5 491.5,207.5 491.5,205.5 Z"/></g>
<g><path style="opacity:1" fill="#45b346" d="M 506.5,205.5 C 507.657,208.273 508.324,211.273 508.5,214.5C 507.883,214.389 507.383,214.056 507,213.5C 506.503,210.854 506.336,208.187 506.5,205.5 Z"/></g>
<g><path style="opacity:1" fill="#45b346" d="M 491.5,211.5 C 491.408,217.746 492.075,223.912 493.5,230C 493.291,231.871 492.291,233.038 490.5,233.5C 487.754,232.755 486.088,231.088 485.5,228.5C 487.525,222.753 489.525,217.086 491.5,211.5 Z"/></g>
<g><path style="opacity:1" fill="#225943" d="M 459.5,214.5 C 457.488,221.791 458.488,228.458 462.5,234.5C 455.559,244.44 447.892,253.773 439.5,262.5C 439.663,260.143 439.497,257.81 439,255.5C 436.262,254.518 433.428,253.852 430.5,253.5C 434.51,247.484 438.01,241.15 441,234.5C 447.033,227.637 453.199,220.97 459.5,214.5 Z"/></g>
<g><path style="opacity:1" fill="#47b249" d="M 508.5,215.5 C 509.403,218.391 509.736,221.391 509.5,224.5C 509.5,230.167 509.5,235.833 509.5,241.5C 509.167,241.5 508.833,241.5 508.5,241.5C 507.935,232.779 506.935,224.113 505.5,215.5C 506.5,215.5 507.5,215.5 508.5,215.5 Z"/></g>
<g><path style="opacity:1" fill="#225943" d="M 393.5,223.5 C 392.833,224.5 392.167,225.5 391.5,226.5C 387.562,229.098 383.895,232.098 380.5,235.5C 372.315,234.33 365.481,236.997 360,243.5C 358.428,246.822 356.261,249.656 353.5,252C 343.876,254.544 334.21,255.711 324.5,255.5C 327.585,249.661 330.918,243.994 334.5,238.5C 336.068,239.473 337.735,239.64 339.5,239C 340.5,237.333 341.5,235.667 342.5,234C 344.579,233.192 346.579,233.359 348.5,234.5C 346.372,238.047 346.872,241.381 350,244.5C 351.958,241.685 352.458,238.685 351.5,235.5C 353.945,231.722 357.278,229.055 361.5,227.5C 367.197,229.138 372.531,228.305 377.5,225C 379.037,223.89 379.703,222.39 379.5,220.5C 384.071,221.868 388.738,222.868 393.5,223.5 Z"/></g>
<g><path style="opacity:1" fill="#205340" d="M 412.5,241.5 C 412.265,240.903 411.765,240.57 411,240.5C 409.667,241.167 408.333,241.833 407,242.5C 404.958,240.957 402.792,239.624 400.5,238.5C 404.963,233.535 409.63,228.702 414.5,224C 416.025,222.991 417.692,222.491 419.5,222.5C 418.926,229.562 416.593,235.895 412.5,241.5 Z"/></g>
<g><path style="opacity:1" fill="#d9ebda" d="M 509.5,224.5 C 510.167,227.5 510.833,230.5 511.5,233.5C 511.5,243.833 511.5,254.167 511.5,264.5C 509.489,276.545 506.822,288.545 503.5,300.5C 503.245,302.967 502.245,304.967 500.5,306.5C 501.18,300.447 502.18,294.447 503.5,288.5C 504.407,286.343 505.073,284.01 505.5,281.5C 506.554,276.893 507.221,272.227 507.5,267.5C 509.004,258.949 509.671,250.282 509.5,241.5C 509.5,235.833 509.5,230.167 509.5,224.5 Z"/></g>
<g><path style="opacity:1" fill="#34864d" d="M 17.5,226.5 C 18.6129,227.946 18.7796,229.613 18,231.5C 15.799,235.783 13.799,240.117 12,244.5C 11.2828,243.956 10.7828,243.289 10.5,242.5C 11.6319,239.372 12.4652,236.038 13,232.5C 15.1019,230.905 16.6019,228.905 17.5,226.5 Z"/></g>
<g><path style="opacity:1" fill="#af44b3" d="M 380.5,235.5 C 365.393,251.488 346.727,258.988 324.5,258C 323.402,257.23 323.402,256.397 324.5,255.5C 334.21,255.711 343.876,254.544 353.5,252C 356.261,249.656 358.428,246.822 360,243.5C 365.481,236.997 372.315,234.33 380.5,235.5 Z"/></g>
<g><path style="opacity:1" fill="#205541" d="M 482.5,237.5 C 484.144,237.286 485.644,237.62 487,238.5C 488.257,240.679 489.757,242.679 491.5,244.5C 490.509,247.856 491.509,250.523 494.5,252.5C 494.5,252.833 494.5,253.167 494.5,253.5C 491.639,259.417 488.972,265.417 486.5,271.5C 485.504,271.586 484.671,271.252 484,270.5C 482.441,268.783 481.608,266.783 481.5,264.5C 480.167,264.5 478.833,264.5 477.5,264.5C 478.034,268.478 476.534,271.478 473,273.5C 472.181,278.141 470.681,282.474 468.5,286.5C 465.947,288.597 463.614,290.93 461.5,293.5C 468.915,274.913 475.915,256.247 482.5,237.5 Z"/></g>
<g><path style="opacity:1" fill="#af44b3" d="M 400.5,238.5 C 402.792,239.624 404.958,240.957 407,242.5C 408.333,241.833 409.667,241.167 411,240.5C 411.765,240.57 412.265,240.903 412.5,241.5C 406.318,252.348 398.985,262.348 390.5,271.5C 385.434,271.411 380.267,271.411 375,271.5C 372.337,272.911 369.504,273.911 366.5,274.5C 378.819,263.512 390.153,251.512 400.5,238.5 Z"/></g>
<g><path style="opacity:1" fill="#b045b3" d="M 508.5,241.5 C 508.833,241.5 509.167,241.5 509.5,241.5C 509.671,250.282 509.004,258.949 507.5,267.5C 506.196,268.987 505.03,270.654 504,272.5C 503.329,271.748 502.496,271.414 501.5,271.5C 502.466,266.184 502.966,260.851 503,255.5C 500.257,272.907 494.09,288.907 484.5,303.5C 483.796,301.656 482.463,301.156 480.5,302C 477.399,302.942 475.066,304.776 473.5,307.5C 470.312,305.791 468.645,303.124 468.5,299.5C 469.757,295.138 469.757,290.805 468.5,286.5C 470.681,282.474 472.181,278.141 473,273.5C 476.534,271.478 478.034,268.478 477.5,264.5C 478.833,264.5 480.167,264.5 481.5,264.5C 481.608,266.783 482.441,268.783 484,270.5C 484.671,271.252 485.504,271.586 486.5,271.5C 484.696,277.05 483.362,282.717 482.5,288.5C 483.93,288.579 485.264,288.246 486.5,287.5C 486.88,289.021 487.046,290.687 487,292.5C 492.783,283.265 496.616,273.265 498.5,262.5C 497.293,259.953 495.96,256.953 494.5,253.5C 494.5,253.167 494.5,252.833 494.5,252.5C 495.504,251.317 496.338,249.984 497,248.5C 497.708,249.381 498.542,250.047 499.5,250.5C 500.978,248.365 501.978,245.365 502.5,241.5C 504.781,243.8 506.614,246.466 508,249.5C 508.497,246.854 508.664,244.187 508.5,241.5 Z"/></g>
<g><path style="opacity:1" fill="#af44b3" d="M 430.5,253.5 C 433.428,253.852 436.262,254.518 439,255.5C 439.497,257.81 439.663,260.143 439.5,262.5C 430.122,273.209 421.122,284.209 412.5,295.5C 411.025,291.217 409.025,287.217 406.5,283.5C 414.91,273.764 422.91,263.764 430.5,253.5 Z"/></g>
<g><path style="opacity:1" fill="#cadfcf" d="M 501.5,271.5 C 499.028,279.037 496.695,286.704 494.5,294.5C 491.658,301.011 488.991,307.678 486.5,314.5C 484.5,318.5 482.5,322.5 480.5,326.5C 479.503,326.53 478.836,326.03 478.5,325C 479.409,323.211 479.576,321.377 479,319.5C 478.051,321.093 476.885,322.426 475.5,323.5C 478.5,316.833 481.5,310.167 484.5,303.5C 494.09,288.907 500.257,272.907 503,255.5C 502.966,260.851 502.466,266.184 501.5,271.5 Z"/></g>
<g><path style="opacity:1" fill="#cce2d1" d="M 494.5,253.5 C 495.96,256.953 497.293,259.953 498.5,262.5C 496.616,273.265 492.783,283.265 487,292.5C 487.046,290.687 486.88,289.021 486.5,287.5C 485.264,288.246 483.93,288.579 482.5,288.5C 483.362,282.717 484.696,277.05 486.5,271.5C 488.972,265.417 491.639,259.417 494.5,253.5 Z"/></g>
<g><path style="opacity:1" fill="#112d29" d="M 224.5,264.5 C 227.187,264.336 229.854,264.503 232.5,265C 233.517,266.049 233.684,267.216 233,268.5C 228.996,272.612 224.163,274.112 218.5,273C 216.993,272.163 216.493,270.996 217,269.5C 219.17,267.177 221.67,265.51 224.5,264.5 Z"/></g>
<g><path style="opacity:1" fill="#daebdc" d="M 486.5,259.5 C 487.262,262.152 486.762,264.818 485,267.5C 484.955,264.78 485.455,262.114 486.5,259.5 Z"/></g>
<g><path style="opacity:1" fill="#af51b1" d="M 511.5,264.5 C 511.5,269.167 511.5,273.833 511.5,278.5C 510.833,281.5 510.167,284.5 509.5,287.5C 508.294,292.861 506.961,298.194 505.5,303.5C 504.833,302.5 504.167,301.5 503.5,300.5C 506.822,288.545 509.489,276.545 511.5,264.5 Z"/></g>
<g><path style="opacity:1" fill="#af44b3" d="M 491.5,265.5 C 492.09,268.952 491.257,272.285 489,275.5C 488.917,271.981 489.75,268.647 491.5,265.5 Z"/></g>
<g><path style="opacity:1" fill="#8bc2ba" d="M 223.5,267.5 C 229.448,267.626 229.781,268.626 224.5,270.5C 222.197,270.124 221.863,269.124 223.5,267.5 Z"/></g>
<g><path style="opacity:1" fill="#4ab04a" d="M 507.5,267.5 C 507.221,272.227 506.554,276.893 505.5,281.5C 502.793,283.283 502.127,285.617 503.5,288.5C 502.18,294.447 501.18,300.447 500.5,306.5C 499.685,307.429 498.852,308.429 498,309.5C 497.744,312.557 497.244,315.557 496.5,318.5C 496.808,319.308 497.308,319.975 498,320.5C 498.837,316.286 500.17,312.286 502,308.5C 501.526,312.167 501.026,315.667 500.5,319C 500.667,319.5 500.833,320 501,320.5C 501.77,319.402 502.603,319.402 503.5,320.5C 503.405,322.786 502.738,324.786 501.5,326.5C 501.042,323.85 500.042,323.35 498.5,325C 499.636,326.145 500.636,327.312 501.5,328.5C 500.538,332.395 499.204,336.061 497.5,339.5C 494.226,340.241 491.726,342.574 490,346.5C 491.323,341.563 492.823,336.563 494.5,331.5C 494.234,328.655 493.234,326.322 491.5,324.5C 491.368,319.25 491.868,313.917 493,308.5C 493.557,306.385 494.391,304.385 495.5,302.5C 495.154,301.304 494.654,301.304 494,302.5C 493.825,299.843 493.992,297.176 494.5,294.5C 496.695,286.704 499.028,279.037 501.5,271.5C 502.496,271.414 503.329,271.748 504,272.5C 505.03,270.654 506.196,268.987 507.5,267.5 Z"/></g>
<g><path style="opacity:1" fill="#7caea8" d="M 116.5,268.5 C 118.857,268.337 121.19,268.503 123.5,269C 125.037,270.11 125.703,271.61 125.5,273.5C 122.68,273.752 120.014,273.252 117.5,272C 116.663,270.989 116.33,269.822 116.5,268.5 Z"/></g>
<g><path style="opacity:1" fill="#225943" d="M 390.5,271.5 C 386.288,279.715 380.288,286.382 372.5,291.5C 369.561,291.082 367.228,289.582 365.5,287C 361.379,285.101 357.046,284.268 352.5,284.5C 356.777,280.688 361.443,277.355 366.5,274.5C 369.504,273.911 372.337,272.911 375,271.5C 380.267,271.411 385.434,271.411 390.5,271.5 Z"/></g>
<g><path style="opacity:1" fill="#582239" d="M 34.5,274.5 C 36.371,274.859 37.871,275.859 39,277.5C 39.8186,281.943 41.3186,286.109 43.5,290C 42.6766,292.627 42.0099,295.294 41.5,298C 42.9019,303.813 43.7352,309.646 44,315.5C 42.0924,312.668 41.259,313.001 41.5,316.5C 38.8806,316.768 36.3806,316.435 34,315.5C 31.9533,310.457 28.7866,306.29 24.5,303C 25.1667,302.667 25.8333,302.333 26.5,302C 24.5233,299.572 22.1899,297.572 19.5,296C 19.8333,295.667 20.1667,295.333 20.5,295C 18.9588,293.421 17.7922,291.587 17,289.5C 16.5937,285.073 16.7604,280.906 17.5,277C 19.127,277.43 20.627,277.596 22,277.5C 22.804,276.196 23.9707,275.529 25.5,275.5C 28.2482,277.124 30.7482,278.457 33,279.5C 34.0086,277.975 34.5086,276.308 34.5,274.5 Z"/></g>
<g><path style="opacity:1" fill="#af44b3" d="M 505.5,281.5 C 505.073,284.01 504.407,286.343 503.5,288.5C 502.127,285.617 502.793,283.283 505.5,281.5 Z"/></g>
<g><path style="opacity:1" fill="#34864d" d="M 352.5,284.5 C 357.046,284.268 361.379,285.101 365.5,287C 367.228,289.582 369.561,291.082 372.5,291.5C 370.5,293.167 368.5,294.833 366.5,296.5C 359.622,300.266 352.288,302.933 344.5,304.5C 341.549,304.198 339.549,302.698 338.5,300C 341.217,294.449 344.884,289.616 349.5,285.5C 350.609,285.443 351.609,285.11 352.5,284.5 Z"/></g>
<g><path style="opacity:1" fill="#582239" d="M 468.5,286.5 C 469.757,290.805 469.757,295.138 468.5,299.5C 468.645,303.124 470.312,305.791 473.5,307.5C 475.066,304.776 477.399,302.942 480.5,302C 482.463,301.156 483.796,301.656 484.5,303.5C 481.5,310.167 478.5,316.833 475.5,323.5C 472.146,333.873 467.479,343.54 461.5,352.5C 460.297,347.818 460.297,343.151 461.5,338.5C 460.233,336.683 458.9,335.016 457.5,333.5C 461.145,328.355 465.312,323.689 470,319.5C 471.541,317.523 472.041,315.523 471.5,313.5C 465.445,319.56 459.111,325.226 452.5,330.5C 448.304,330.402 444.971,328.736 442.5,325.5C 447.534,317.478 452.534,309.478 457.5,301.5C 460.41,314.659 462.744,314.325 464.5,300.5C 463.129,298.319 462.129,295.986 461.5,293.5C 463.614,290.93 465.947,288.597 468.5,286.5 Z"/></g>
<g><path style="opacity:1" fill="#8bc2ba" d="M 61.5,341.5 C 65.1667,341.5 68.8333,341.5 72.5,341.5C 80.4287,344.201 88.4287,347.034 96.5,350C 99.2101,351.015 101.543,352.515 103.5,354.5C 102.833,355.167 102.167,355.833 101.5,356.5C 103.799,361.292 106.299,365.959 109,370.5C 110.126,374.749 110.792,379.082 111,383.5C 114.262,390.187 117.096,397.02 119.5,404C 115.123,410.133 114.457,416.633 117.5,423.5C 115.232,428.101 115.065,432.767 117,437.5C 121.214,441.382 125.714,444.882 130.5,448C 145.833,452.442 160.5,458.442 174.5,466C 177.227,468.956 178.727,472.456 179,476.5C 182.764,478.632 186.264,481.132 189.5,484C 183.921,485.911 178.255,485.911 172.5,484C 172.018,482.992 171.852,481.825 172,480.5C 169.443,477.808 166.609,475.475 163.5,473.5C 162.23,471.452 161.897,469.452 162.5,467.5C 162.023,466.522 161.357,465.689 160.5,465C 138.753,457.462 118.753,446.795 100.5,433C 96.5,431 92.5,429 88.5,427C 77.9225,416.427 68.0892,405.26 59,393.5C 56.3062,382.78 51.9728,372.78 46,363.5C 45.3333,362.167 45.3333,360.833 46,359.5C 50.6228,361.678 52.6228,360.344 52,355.5C 49.5879,350.341 46.9212,345.341 44,340.5C 31.4258,325.196 21.2591,308.363 13.5,290C 13.6667,289.5 13.8333,289 14,288.5C 20.4144,301.673 28.081,314.006 37,325.5C 43.4678,333.474 51.6345,338.807 61.5,341.5 Z"/></g>
<g><path style="opacity:1" fill="#112d29" d="M 128.5,291.5 C 133.436,291.311 137.602,292.977 141,296.5C 142.052,300.293 140.552,302.293 136.5,302.5C 131.683,302.106 128.349,299.773 126.5,295.5C 126.752,293.927 127.418,292.594 128.5,291.5 Z"/></g>
<g><path style="opacity:1" fill="#112d29" d="M 461.5,293.5 C 462.129,295.986 463.129,298.319 464.5,300.5C 462.744,314.325 460.41,314.659 457.5,301.5C 458.326,298.515 459.659,295.849 461.5,293.5 Z"/></g>
<g><path style="opacity:1" fill="#af44b3" d="M 494.5,294.5 C 493.992,297.176 493.825,299.843 494,302.5C 494.654,301.304 495.154,301.304 495.5,302.5C 494.391,304.385 493.557,306.385 493,308.5C 491.868,313.917 491.368,319.25 491.5,324.5C 491.344,327.066 491.678,329.566 492.5,332C 491.287,338.587 488.62,344.42 484.5,349.5C 483.728,344.689 484.061,339.856 485.5,335C 485.05,333.715 484.383,332.548 483.5,331.5C 485.923,325.821 486.923,320.155 486.5,314.5C 488.991,307.678 491.658,301.011 494.5,294.5 Z"/></g>
<g><path style="opacity:1" fill="#a9d4aa" d="M 509.5,287.5 C 509.361,294.331 508.361,300.998 506.5,307.5C 505.566,306.432 505.232,305.099 505.5,303.5C 506.961,298.194 508.294,292.861 509.5,287.5 Z"/></g>
<g><path style="opacity:1" fill="#582239" d="M 72.5,341.5 C 68.8333,341.5 65.1667,341.5 61.5,341.5C 60.0106,339.195 58.5106,336.862 57,334.5C 57.4081,329.76 57.9081,325.26 58.5,321C 57.9369,317.704 56.9369,314.538 55.5,311.5C 56.4088,308.34 58.5755,306.673 62,306.5C 68.5074,309.595 71.3407,314.595 70.5,321.5C 71.3724,325.192 72.3724,328.859 73.5,332.5C 72.6978,335.449 72.3645,338.449 72.5,341.5 Z"/></g>
<g><path style="opacity:1" fill="#4d715a" d="M 503.5,300.5 C 504.167,301.5 504.833,302.5 505.5,303.5C 505.232,305.099 505.566,306.432 506.5,307.5C 505.967,311.965 504.967,316.298 503.5,320.5C 502.603,319.402 501.77,319.402 501,320.5C 500.833,320 500.667,319.5 500.5,319C 501.026,315.667 501.526,312.167 502,308.5C 500.17,312.286 498.837,316.286 498,320.5C 497.308,319.975 496.808,319.308 496.5,318.5C 497.244,315.557 497.744,312.557 498,309.5C 498.852,308.429 499.685,307.429 500.5,306.5C 502.245,304.967 503.245,302.967 503.5,300.5 Z"/></g>
<g><path style="opacity:1" fill="#34864d" d="M 369.5,312.5 C 369.693,316.007 369.027,319.34 367.5,322.5C 368.348,325.888 370.348,328.221 373.5,329.5C 374.962,328.529 376.295,328.862 377.5,330.5C 375.921,333.994 374.087,337.327 372,340.5C 365.304,334.634 358.804,328.634 352.5,322.5C 358.331,319.419 363.998,316.085 369.5,312.5 Z"/></g>
<g><path style="opacity:1" fill="#59233b" d="M 486.5,314.5 C 486.923,320.155 485.923,325.821 483.5,331.5C 484.383,332.548 485.05,333.715 485.5,335C 484.061,339.856 483.728,344.689 484.5,349.5C 484.167,351.5 483.833,353.5 483.5,355.5C 482.681,358.305 482.181,361.305 482,364.5C 481.667,364.167 481.333,363.833 481,363.5C 473.826,370.592 472.993,370.092 478.5,362C 479.449,361.383 480.282,361.549 481,362.5C 481.717,358.232 480.55,357.566 477.5,360.5C 476.808,359.975 476.308,359.308 476,358.5C 474.552,361.455 472.385,363.455 469.5,364.5C 470.32,360.817 468.987,358.483 465.5,357.5C 467.473,353.553 469.473,349.553 471.5,345.5C 470.833,345.167 470.167,344.833 469.5,344.5C 470.414,342.336 471.581,340.336 473,338.5C 473.333,339.167 473.667,339.833 474,340.5C 476.452,335.932 478.618,331.265 480.5,326.5C 482.5,322.5 484.5,318.5 486.5,314.5 Z"/></g>
<g><path style="opacity:1" fill="#afd4c2" d="M 491.5,205.5 C 491.5,207.5 491.5,209.5 491.5,211.5C 489.525,217.086 487.525,222.753 485.5,228.5C 484.304,231.421 483.304,234.421 482.5,237.5C 475.915,256.247 468.915,274.913 461.5,293.5C 459.659,295.849 458.326,298.515 457.5,301.5C 452.534,309.478 447.534,317.478 442.5,325.5C 440.42,328.642 438.086,331.642 435.5,334.5C 428.723,341.106 421.723,347.606 414.5,354C 410.168,353.837 405.834,353.337 401.5,352.5C 400.606,349.208 400.773,345.874 402,342.5C 405.143,334.56 407.976,326.56 410.5,318.5C 414.5,318.5 418.5,318.5 422.5,318.5C 424.452,318.005 426.452,317.672 428.5,317.5C 431.794,317.846 434.794,318.679 437.5,320C 449.783,307.372 459.283,292.872 466,276.5C 474.58,252.712 483.08,229.045 491.5,205.5 Z"/></g>
<g><path style="opacity:1" fill="#215743" d="M 406.5,283.5 C 409.025,287.217 411.025,291.217 412.5,295.5C 406.755,301.582 401.755,308.249 397.5,315.5C 397.709,316.086 398.043,316.586 398.5,317C 402.585,317.233 406.585,317.733 410.5,318.5C 407.976,326.56 405.143,334.56 402,342.5C 400.773,345.874 400.606,349.208 401.5,352.5C 405.834,353.337 410.168,353.837 414.5,354C 421.723,347.606 428.723,341.106 435.5,334.5C 438.033,337.684 438.033,341.018 435.5,344.5C 435.833,345.167 436.167,345.833 436.5,346.5C 438.173,344.914 440.173,344.247 442.5,344.5C 441.697,345.423 441.53,346.423 442,347.5C 443.992,346.335 445.825,345.002 447.5,343.5C 450.369,342.108 452.035,343.108 452.5,346.5C 451.356,356.285 448.356,365.451 443.5,374C 444.337,375.011 444.67,376.178 444.5,377.5C 443.189,380.135 441.522,382.469 439.5,384.5C 438.132,383.528 436.632,382.528 435,381.5C 434,381.833 433,382.167 432,382.5C 431.147,380.875 430.147,380.542 429,381.5C 427.333,380.5 425.667,379.5 424,378.5C 423.667,378.833 423.333,379.167 423,379.5C 422.147,377.875 421.147,377.542 420,378.5C 419.147,376.875 418.147,376.542 417,377.5C 415.899,375.606 414.566,374.939 413,375.5C 411.899,373.606 410.566,372.939 409,373.5C 407.899,371.606 406.566,370.939 405,371.5C 403.899,369.606 402.566,368.939 401,369.5C 398,367.167 395,364.833 392,362.5C 391.667,362.833 391.333,363.167 391,363.5C 389.333,361.833 387.667,360.167 386,358.5C 385.667,358.833 385.333,359.167 385,359.5C 383,357.5 381,355.5 379,353.5C 378.667,353.833 378.333,354.167 378,354.5C 371.002,349.536 364.336,343.536 358,336.5C 356.904,338.889 356.071,341.389 355.5,344C 352.579,342.222 349.245,340.722 345.5,339.5C 342.668,343.828 339.335,347.661 335.5,351C 327.143,353.346 319.476,357.013 312.5,362C 313.624,362.249 314.624,362.749 315.5,363.5C 313.684,365.817 311.684,367.984 309.5,370C 305.771,370.844 302.437,372.344 299.5,374.5C 291.534,376.646 283.867,379.646 276.5,383.5C 275.614,384.325 275.281,385.325 275.5,386.5C 273.827,385.657 272.66,384.324 272,382.5C 271.667,379.833 271.333,377.167 271,374.5C 266.406,371.721 266.573,369.055 271.5,366.5C 272.333,367.5 273.167,368.5 274,369.5C 274.251,367.567 274.751,365.734 275.5,364C 275.167,363.667 274.833,363.333 274.5,363C 269.577,363.552 264.577,363.552 259.5,363C 253.175,359.426 246.509,358.759 239.5,361C 232.554,363.287 226.054,366.453 220,370.5C 219.077,372.034 218.577,373.701 218.5,375.5C 219.696,379.511 220.529,383.511 221,387.5C 220.333,388.833 219.667,390.167 219,391.5C 214.977,393.692 211.81,396.692 209.5,400.5C 202.784,397.28 197.118,392.78 192.5,387C 192.903,385.527 193.57,384.194 194.5,383C 197.833,382.667 201.167,382.333 204.5,382C 208.863,376.898 209.53,371.398 206.5,365.5C 209.928,361.452 214.261,358.952 219.5,358C 223.732,354.686 224.398,350.853 221.5,346.5C 224.184,346.024 226.517,345.024 228.5,343.5C 228.006,341.974 227.339,340.641 226.5,339.5C 234.223,336.663 242.223,334.33 250.5,332.5C 259.908,334.691 269.242,337.191 278.5,340C 295.579,341.68 311.912,339.18 327.5,332.5C 328.5,332.5 329.5,332.5 330.5,332.5C 331.942,333.82 332.608,335.486 332.5,337.5C 335.675,337.497 338.508,336.497 341,334.5C 342,335.5 343,336.5 344,337.5C 346.216,333.567 346.716,329.567 345.5,325.5C 347.954,324.773 350.287,323.773 352.5,322.5C 358.804,328.634 365.304,334.634 372,340.5C 374.087,337.327 375.921,333.994 377.5,330.5C 376.295,328.862 374.962,328.529 373.5,329.5C 370.348,328.221 368.348,325.888 367.5,322.5C 369.027,319.34 369.693,316.007 369.5,312.5C 373.896,309.975 377.896,306.975 381.5,303.5C 390.381,297.554 398.714,290.888 406.5,283.5 Z"/></g>
<g><path style="opacity:1" fill="#2d5e48" d="M 491.5,324.5 C 493.234,326.322 494.234,328.655 494.5,331.5C 492.823,336.563 491.323,341.563 490,346.5C 491.726,342.574 494.226,340.241 497.5,339.5C 495.297,347.558 492.297,355.225 488.5,362.5C 488.705,360.863 488.205,359.196 487,357.5C 485.698,356.915 484.531,356.249 483.5,355.5C 483.833,353.5 484.167,351.5 484.5,349.5C 488.62,344.42 491.287,338.587 492.5,332C 491.678,329.566 491.344,327.066 491.5,324.5 Z"/></g>
<g><path style="opacity:1" fill="#7a5582" d="M 501.5,326.5 C 501.5,327.167 501.5,327.833 501.5,328.5C 500.636,327.312 499.636,326.145 498.5,325C 500.042,323.35 501.042,323.85 501.5,326.5 Z"/></g>
<g><path style="opacity:1" fill="#112d29" d="M 345.5,325.5 C 346.716,329.567 346.216,333.567 344,337.5C 343,336.5 342,335.5 341,334.5C 338.508,336.497 335.675,337.497 332.5,337.5C 332.608,335.486 331.942,333.82 330.5,332.5C 335.512,330.375 340.512,328.042 345.5,325.5 Z"/></g>
<g><path style="opacity:1" fill="#112d29" d="M 442.5,325.5 C 444.971,328.736 448.304,330.402 452.5,330.5C 449.176,335.137 445.843,339.804 442.5,344.5C 440.173,344.247 438.173,344.914 436.5,346.5C 436.167,345.833 435.833,345.167 435.5,344.5C 438.033,341.018 438.033,337.684 435.5,334.5C 438.086,331.642 440.42,328.642 442.5,325.5 Z"/></g>
<g><path style="opacity:1" fill="#b0d5c3" d="M 457.5,333.5 C 453.833,336.5 450.5,339.833 447.5,343.5C 445.825,345.002 443.992,346.335 442,347.5C 441.53,346.423 441.697,345.423 442.5,344.5C 445.843,339.804 449.176,335.137 452.5,330.5C 459.111,325.226 465.445,319.56 471.5,313.5C 472.041,315.523 471.541,317.523 470,319.5C 465.312,323.689 461.145,328.355 457.5,333.5 Z"/></g>
<g><path style="opacity:1" fill="#112d2a" d="M 457.5,333.5 C 458.9,335.016 460.233,336.683 461.5,338.5C 460.297,343.151 460.297,347.818 461.5,352.5C 456.999,361.66 451.333,369.993 444.5,377.5C 444.67,376.178 444.337,375.011 443.5,374C 448.356,365.451 451.356,356.285 452.5,346.5C 452.035,343.108 450.369,342.108 447.5,343.5C 450.5,339.833 453.833,336.5 457.5,333.5 Z"/></g>
<g><path style="opacity:1" fill="#225943" d="M 207.5,337.5 C 208.496,337.414 209.329,337.748 210,338.5C 210.667,340.167 210.667,341.833 210,343.5C 207.333,345.5 204.667,347.5 202,349.5C 200.933,348.809 199.766,348.309 198.5,348C 197.483,346.951 197.316,345.784 198,344.5C 199.945,343.137 202.112,342.303 204.5,342C 205.386,340.385 206.386,338.885 207.5,337.5 Z"/></g>
<g><path style="opacity:1" fill="#582239" d="M 129.5,338.5 C 137.577,338.414 144.91,340.747 151.5,345.5C 154.59,350.117 155.423,355.117 154,360.5C 157.565,367.87 160.732,375.37 163.5,383C 163.29,386.296 162.29,389.296 160.5,392C 161.167,395 161.833,398 162.5,401C 162.054,402.726 161.221,404.226 160,405.5C 160.891,401.809 160.558,398.142 159,394.5C 158.424,396.377 158.591,398.211 159.5,400C 159.097,401.473 158.43,402.806 157.5,404C 154.666,404.045 152.166,404.879 150,406.5C 141.885,404.861 134.385,401.695 127.5,397C 119.788,390.271 118.455,382.438 123.5,373.5C 126.525,372.571 129.358,371.238 132,369.5C 132.161,365.458 131.661,361.458 130.5,357.5C 131.126,354.922 132.293,352.589 134,350.5C 134.561,349.978 135.228,349.645 136,349.5C 138.464,350.161 140.964,350.661 143.5,351C 144.431,358.278 147.598,364.444 153,369.5C 154.833,373.833 156.667,378.167 158.5,382.5C 156.775,384.957 156.275,387.623 157,390.5C 157.513,387.506 158.68,384.839 160.5,382.5C 158.368,376.937 156.535,371.271 155,365.5C 154.047,363.545 152.713,361.878 151,360.5C 151.627,356.889 151.96,353.223 152,349.5C 151.167,346.667 149.333,344.833 146.5,344C 142.372,343.674 138.372,342.84 134.5,341.5C 127.4,342.392 125.734,345.892 129.5,352C 128.936,356.744 128.936,361.577 129.5,366.5C 125.317,365.846 122.484,367.512 121,371.5C 120.833,371.167 120.667,370.833 120.5,370.5C 122.957,366.038 124.957,361.372 126.5,356.5C 126.423,354.701 125.923,353.034 125,351.5C 122.778,349.615 120.944,347.449 119.5,345C 120.487,342.679 122.154,341.013 124.5,340C 126.382,339.802 128.048,339.302 129.5,338.5 Z"/></g>
<g><path style="opacity:1" fill="#45b346" d="M 275.5,386.5 C 278.081,392.448 279.248,398.782 279,405.5C 281.975,410.801 284.475,416.301 286.5,422C 285.693,424.939 283.693,426.772 280.5,427.5C 277.587,430.457 274.921,433.624 272.5,437C 270.655,438.128 268.655,438.628 266.5,438.5C 258.9,437.701 251.9,435.201 245.5,431C 241.66,430.594 237.827,430.761 234,431.5C 227.826,431.329 223.326,428.496 220.5,423C 218.608,422.027 216.608,421.36 214.5,421C 212,417.833 209.5,414.667 207,411.5C 207.59,409.186 208.757,407.019 210.5,405C 209.852,403.56 209.519,402.06 209.5,400.5C 211.81,396.692 214.977,393.692 219,391.5C 219.667,390.167 220.333,388.833 221,387.5C 220.529,383.511 219.696,379.511 218.5,375.5C 218.577,373.701 219.077,372.034 220,370.5C 226.054,366.453 232.554,363.287 239.5,361C 246.509,358.759 253.175,359.426 259.5,363C 264.577,363.552 269.577,363.552 274.5,363C 274.833,363.333 275.167,363.667 275.5,364C 274.751,365.734 274.251,367.567 274,369.5C 273.167,368.5 272.333,367.5 271.5,366.5C 266.573,369.055 266.406,371.721 271,374.5C 271.333,377.167 271.667,379.833 272,382.5C 272.66,384.324 273.827,385.657 275.5,386.5 Z"/></g>
<g><path style="opacity:1" fill="#215843" d="M 324.5,440.5 C 324.67,439.178 324.337,438.011 323.5,437C 318.625,436.247 313.792,436.414 309,437.5C 307.97,437.164 307.47,436.497 307.5,435.5C 308.496,435.586 309.329,435.252 310,434.5C 308.756,426.444 309.589,418.611 312.5,411C 310.914,407.993 308.747,405.493 306,403.5C 304.789,400.448 303.955,397.281 303.5,394C 305.573,389.696 306.906,385.196 307.5,380.5C 312.876,380.145 317.543,378.145 321.5,374.5C 322.328,375.415 323.328,376.081 324.5,376.5C 327.926,375.435 331.426,374.768 335,374.5C 339.419,375.985 343.919,376.485 348.5,376C 351.484,372.668 355.151,370.668 359.5,370C 361.193,367.488 363.526,365.988 366.5,365.5C 370.822,365.556 375.156,365.89 379.5,366.5C 380.553,367.438 381.22,368.605 381.5,370C 380.472,373.221 379.306,376.388 378,379.5C 375.757,381.282 373.257,381.782 370.5,381C 369.695,379.028 368.361,377.528 366.5,376.5C 362.006,378.741 358.339,381.908 355.5,386C 348.892,388.363 347.225,392.53 350.5,398.5C 354.201,400.012 357.534,402.012 360.5,404.5C 363.118,403.627 365.784,402.961 368.5,402.5C 372.866,403.21 377.199,403.543 381.5,403.5C 384.598,401.98 387.931,401.146 391.5,401C 396.222,397.373 401.222,394.207 406.5,391.5C 407.415,392.328 408.081,393.328 408.5,394.5C 405.344,400.658 401.344,406.158 396.5,411C 395.271,411.781 393.938,412.281 392.5,412.5C 390.845,411.772 389.179,411.605 387.5,412C 386,414.833 383.833,417 381,418.5C 381.128,420.445 380.962,422.278 380.5,424C 375.062,426.276 369.395,427.443 363.5,427.5C 363.127,424.426 362.461,421.426 361.5,418.5C 357.083,418.042 353.75,419.708 351.5,423.5C 350.061,424.063 348.561,424.397 347,424.5C 343.428,423.432 339.928,422.599 336.5,422C 334.211,426.203 332.711,430.703 332,435.5C 330.143,438.2 327.643,439.866 324.5,440.5 Z"/></g>
<g><path style="opacity:1" fill="#8fc2ba" d="M 480.5,326.5 C 478.618,331.265 476.452,335.932 474,340.5C 473.667,339.833 473.333,339.167 473,338.5C 471.581,340.336 470.414,342.336 469.5,344.5C 470.167,344.833 470.833,345.167 471.5,345.5C 469.473,349.553 467.473,353.553 465.5,357.5C 461.669,362.489 458.336,367.822 455.5,373.5C 452.102,376.627 449.435,380.293 447.5,384.5C 445.53,386.647 443.697,388.98 442,391.5C 440.789,400.922 437.122,409.255 431,416.5C 415.928,435.243 398.095,450.743 377.5,463C 369.203,468.657 360.203,472.323 350.5,474C 384.374,448.293 414.041,418.46 439.5,384.5C 441.522,382.469 443.189,380.135 444.5,377.5C 451.333,369.993 456.999,361.66 461.5,352.5C 467.479,343.54 472.146,333.873 475.5,323.5C 476.885,322.426 478.051,321.093 479,319.5C 479.576,321.377 479.409,323.211 478.5,325C 478.836,326.03 479.503,326.53 480.5,326.5 Z"/></g>
<g><path style="opacity:1" fill="#34864d" d="M 299.5,374.5 C 300.833,374.5 302.167,374.5 303.5,374.5C 303.351,375.552 303.517,376.552 304,377.5C 305.518,378.163 306.685,379.163 307.5,380.5C 306.906,385.196 305.573,389.696 303.5,394C 303.955,397.281 304.789,400.448 306,403.5C 308.747,405.493 310.914,407.993 312.5,411C 309.589,418.611 308.756,426.444 310,434.5C 309.329,435.252 308.496,435.586 307.5,435.5C 297.274,438.575 286.94,441.242 276.5,443.5C 273.582,442.635 270.582,441.635 267.5,440.5C 266.702,440.043 266.369,439.376 266.5,438.5C 268.655,438.628 270.655,438.128 272.5,437C 274.921,433.624 277.587,430.457 280.5,427.5C 283.693,426.772 285.693,424.939 286.5,422C 284.475,416.301 281.975,410.801 279,405.5C 279.248,398.782 278.081,392.448 275.5,386.5C 275.281,385.325 275.614,384.325 276.5,383.5C 283.867,379.646 291.534,376.646 299.5,374.5 Z"/></g>
<g><path style="opacity:1" fill="#225943" d="M 402.5,380.5 C 403.552,380.351 404.552,380.517 405.5,381C 402.894,383.531 402.56,386.031 404.5,388.5C 403.125,391.729 400.792,392.896 397.5,392C 396.313,389.226 394.98,386.559 393.5,384C 394.167,383.333 394.833,382.667 395.5,382C 398.036,381.814 400.369,381.314 402.5,380.5 Z"/></g>
<g><path style="opacity:1" fill="#1d4c3c" d="M 447.5,384.5 C 449.435,380.293 452.102,376.627 455.5,373.5C 457.117,372.962 458.784,372.629 460.5,372.5C 460.238,373.978 460.571,375.311 461.5,376.5C 462.086,376.291 462.586,375.957 463,375.5C 464.734,376.249 466.567,376.749 468.5,377C 467.167,378 467.167,379 468.5,380C 467.667,380.833 466.833,381.667 466,382.5C 464.667,382.5 463.333,382.5 462,382.5C 461.333,383.167 460.667,383.833 460,384.5C 455.882,384.264 451.716,384.264 447.5,384.5 Z"/></g>
<g><path style="opacity:1" fill="#8bc2ba" d="M 418.5,399.5 C 419.525,399.897 419.692,400.563 419,401.5C 410.792,410.751 401.292,417.918 390.5,423C 391.46,421.581 392.293,420.081 393,418.5C 397.467,415.035 401.633,411.202 405.5,407C 410.191,404.992 414.524,402.492 418.5,399.5 Z"/></g>
<g><path style="opacity:1" fill="#8bc2ba" d="M 459.5,403.5 C 460.043,403.56 460.376,403.893 460.5,404.5C 458.862,407.304 457.029,409.971 455,412.5C 454.5,412 454,411.5 453.5,411C 455.334,408.337 457.334,405.837 459.5,403.5 Z"/></g>
<g><path style="opacity:1" fill="#8bc2ba" d="M 452.5,413.5 C 453.573,414.251 453.74,415.251 453,416.5C 451.333,419.699 449.166,421.699 446.5,422.5C 448.769,419.615 450.769,416.615 452.5,413.5 Z"/></g>
<g><path style="opacity:1" fill="#8bc2ba" d="M 307.5,435.5 C 307.47,436.497 307.97,437.164 309,437.5C 313.792,436.414 318.625,436.247 323.5,437C 324.337,438.011 324.67,439.178 324.5,440.5C 322.095,444.973 319.429,449.306 316.5,453.5C 316.709,454.086 317.043,454.586 317.5,455C 315.582,459.754 312.249,462.92 307.5,464.5C 307.25,461.786 307.083,459.119 307,456.5C 310.736,454.266 313.57,451.266 315.5,447.5C 318.936,445.473 319.936,442.639 318.5,439C 308.069,439.055 298.736,442.221 290.5,448.5C 281.567,452.3 273.233,457.133 265.5,463C 261.53,464.635 257.53,465.135 253.5,464.5C 255.784,463.418 256.95,461.752 257,459.5C 247.933,462.178 238.766,462.678 229.5,461C 227.487,460.32 226.154,458.987 225.5,457C 226.821,454.346 228.821,452.346 231.5,451C 246.34,447.603 261.34,445.103 276.5,443.5C 286.94,441.242 297.274,438.575 307.5,435.5 Z"/></g>
<g><path style="opacity:1" fill="#225943" d="M 315.5,447.5 C 307.207,451.041 298.874,451.374 290.5,448.5C 298.736,442.221 308.069,439.055 318.5,439C 319.936,442.639 318.936,445.473 315.5,447.5 Z"/></g>
<g><path style="opacity:1" fill="#8bc2ba" d="M 409.5,445.5 C 410.043,445.56 410.376,445.893 410.5,446.5C 409.469,447.7 408.635,449.034 408,450.5C 391.849,465.981 373.349,477.481 352.5,485C 353.833,483.667 355.167,482.333 356.5,481C 374.889,470.088 392.555,458.254 409.5,445.5 Z"/></g>
<g><path style="opacity:1" fill="#5d3043" d="M 125.5,475.5 C 123.216,475.025 121.216,474.025 119.5,472.5C 120.648,471.836 121.981,471.669 123.5,472C 121.362,470.578 120.195,468.745 120,466.5C 123.586,469.384 126.252,472.717 128,476.5C 127.329,475.748 126.496,475.414 125.5,475.5 Z"/></g>
<g><path style="opacity:1" fill="#81b5ae" d="M 132.5,479.5 C 148.372,487.07 164.705,493.57 181.5,499C 180.552,499.483 179.552,499.649 178.5,499.5C 162.144,494.984 146.811,488.317 132.5,479.5 Z"/></g>
<g><path style="opacity:1" fill="#87bcb5" d="M 362.5,488.5 C 335.769,500.849 307.769,508.516 278.5,511.5C 263.5,511.5 248.5,511.5 233.5,511.5C 231.735,510.539 229.735,510.205 227.5,510.5C 228.624,509.191 230.124,508.525 232,508.5C 234.477,508.998 236.977,509.331 239.5,509.5C 262.961,508.791 286.128,505.791 309,500.5C 313.112,500.892 312.945,502.059 308.5,504C 309,504.167 309.5,504.333 310,504.5C 328.043,499.754 345.543,494.421 362.5,488.5 Z"/></g>
<g><path style="opacity:1" fill="#225943" d="M 179.5,492.5 C 180.274,491.853 181.274,491.52 182.5,491.5C 188.781,492.728 195.114,493.561 201.5,494C 204.29,494.561 206.623,495.894 208.5,498C 207.224,499.212 205.724,500.045 204,500.5C 195.11,499.703 186.943,497.036 179.5,492.5 Z"/></g>
</svg>
