<?xml version="1.0" encoding="UTF-8"?>
<!DOCTYPE svg PUBLIC "-//W3C//DTD SVG 1.1//EN" "http://www.w3.org/Graphics/SVG/1.1/DTD/svg11.dtd">
<svg xmlns="http://www.w3.org/2000/svg" version="1.1" width="512px" height="512px" style="shape-rendering:geometricPrecision; text-rendering:geometricPrecision; image-rendering:optimizeQuality; fill-rule:evenodd; clip-rule:evenodd" xmlns:xlink="http://www.w3.org/1999/xlink">
<g><path style="opacity:1" fill="#a2a6c1" d="M 308.5,5.5 C 307.312,7.34388 306.312,9.17722 305.5,11C 305.689,13.295 307.023,15.295 309.5,17C 310.097,19.8973 310.097,22.5639 309.5,25C 312,27.5 314.5,30 317,32.5C 319,32.5 321,32.5 323,32.5C 325,33.8333 327,35.1667 329,36.5C 333.256,35.9902 337.256,35.9902 341,36.5C 342.823,35.6883 344.656,34.6883 346.5,33.5C 347.5,35.1667 348.833,36.5 350.5,37.5C 350.736,39.0491 350.736,40.5491 350.5,42C 351.333,42.8333 352.167,43.6667 353,44.5C 355.477,42.795 356.811,40.795 357,38.5C 358.333,38.5 359.667,38.5 361,38.5C 361.833,37.6667 362.667,36.8333 363.5,36C 362.927,32.895 362.594,29.7283 362.5,26.5C 365.298,27.1 367.965,28.1 370.5,29.5C 371.463,29.0302 371.463,28.3635 370.5,27.5C 374.655,28.7417 378.322,30.7417 381.5,33.5C 380.206,34.2899 379.039,35.2899 378,36.5C 376.667,36.5 375.333,36.5 374,36.5C 372.833,37.6667 371.667,38.8333 370.5,40C 371.833,42 371.833,44 370.5,46C 371.5,47 372.5,48 373.5,49C 371.833,50.6667 370.167,52.3333 368.5,54C 368.5,55.3333 368.5,56.6667 368.5,58C 365.5,59.6667 362.5,61.3333 359.5,63C 360.458,64.1475 360.125,65.1475 358.5,66C 359.833,69.3333 359.833,72.6667 358.5,76C 355.833,78.6667 353.167,81.3333 350.5,84C 352,85.5 353.5,87 355,88.5C 356.333,88.5 357.667,88.5 359,88.5C 360.833,90.3333 362.667,92.1667 364.5,94C 362.536,96.5178 361.87,99.1845 362.5,102C 363.667,103.167 364.833,104.333 366,105.5C 367.281,105.619 368.448,105.119 369.5,104C 368.167,102 368.167,100 369.5,98C 372.65,96.9287 375.483,94.762 378,91.5C 381.344,92.6248 384.177,94.9581 386.5,98.5C 381.968,100.553 379.301,103.719 378.5,108C 377.5,109 376.5,110 375.5,111C 376.074,112.762 376.407,114.595 376.5,116.5C 375.711,116.783 375.044,117.283 374.5,118C 375.324,123.744 375.324,129.744 374.5,136C 372.833,139 371.167,142 369.5,145C 369.833,147.333 370.167,149.667 370.5,152C 368.875,152.853 368.542,153.853 369.5,155C 368.5,156.667 367.5,158.333 366.5,160C 366.833,160.333 367.167,160.667 367.5,161C 363.686,163.481 361.519,166.981 361,171.5C 356.162,177.048 350.996,181.548 345.5,185C 345.423,187.489 346.09,190.156 347.5,193C 346.333,194.167 345.167,195.333 344,196.5C 342.667,196.5 341.333,196.5 340,196.5C 337.5,199 335,201.5 332.5,204C 332.833,204.333 333.167,204.667 333.5,205C 331.606,206.101 330.939,207.434 331.5,209C 333.167,210.667 334.833,212.333 336.5,214C 335.542,215.147 335.875,216.147 337.5,217C 336.333,218.167 335.167,219.333 334,220.5C 332.667,220.5 331.333,220.5 330,220.5C 329.333,219.833 328.667,219.167 328,218.5C 326.333,219.5 324.667,220.5 323,221.5C 321,220.167 319,220.167 317,221.5C 314.369,223.365 312.869,225.532 312.5,228C 314.041,229.371 315.375,230.871 316.5,232.5C 309.221,238.29 305.554,245.957 305.5,255.5C 280.027,263.428 268.194,280.761 270,307.5C 271.297,313.565 273.463,319.232 276.5,324.5C 275.312,323.952 274.145,323.619 273,323.5C 271.333,324.5 269.667,325.5 268,326.5C 266,326.5 264,326.5 262,326.5C 257.572,329.732 252.905,331.732 248,332.5C 241.464,339.699 234.964,346.866 228.5,354C 229.346,356.661 229.012,359.661 227.5,363C 227.5,365.667 227.5,368.333 227.5,371C 225.667,372.833 223.833,374.667 222,376.5C 221.667,376.167 221.333,375.833 221,375.5C 219.333,376.5 217.667,377.5 216,378.5C 214.333,378.167 212.667,377.833 211,377.5C 210.333,378.167 209.667,378.833 209,379.5C 199.667,370.167 190.333,360.833 181,351.5C 178.705,351.689 176.705,353.023 175,355.5C 174.667,355.167 174.333,354.833 174,354.5C 169.994,359.225 165.66,362.892 161,365.5C 159.853,364.542 158.853,364.875 158,366.5C 156.853,365.542 155.853,365.875 155,367.5C 153.667,367.5 152.333,367.5 151,367.5C 146.5,363 142,358.5 137.5,354C 140.295,351.273 139.795,348.773 136,346.5C 134.853,347.458 133.853,347.125 133,345.5C 130.333,345.5 127.667,345.5 125,345.5C 124.333,346.167 123.667,346.833 123,347.5C 120.564,346.903 117.897,346.903 115,347.5C 114.333,348.167 113.667,348.833 113,349.5C 111.333,349.167 109.667,348.833 108,348.5C 104.798,350.572 101.298,352.072 97.5,353C 96.7772,355.811 94.9438,358.311 92,360.5C 91.3333,359.833 90.6667,359.167 90,358.5C 88,359.833 86,359.833 84,358.5C 81.2066,359.825 78.2066,361.492 75,363.5C 73.6667,363.5 72.3333,363.5 71,363.5C 68.6667,365.167 66.3333,366.833 64,368.5C 61.3333,368.5 58.6667,368.5 56,368.5C 51.3096,367.192 49.1429,364.359 49.5,360C 47.8753,359.147 47.5419,358.147 48.5,357C 47.8333,356.333 47.1667,355.667 46.5,355C 47.5,353.333 48.5,351.667 49.5,350C 46.6538,346.416 43.4871,343.916 40,342.5C 38.108,343.13 36.4413,344.13 35,345.5C 33,345.5 31,345.5 29,345.5C 27.6667,344.167 26.3333,342.833 25,341.5C 24.6667,341.833 24.3333,342.167 24,342.5C 22,341.167 20,339.833 18,338.5C 17.6667,338.833 17.3333,339.167 17,339.5C 16.1841,338.177 15.0174,337.511 13.5,337.5C -13.608,248.888 0.892018,167.888 57,94.5C 61.6704,88.6633 66.837,83.33 72.5,78.5C 74.8333,76.8333 76.8333,74.8333 78.5,72.5C 81.6293,68.8691 84.9626,65.3691 88.5,62C 93.7155,57.9026 99.0489,54.0693 104.5,50.5C 103.972,51.7206 103.305,52.8873 102.5,54C 103.833,54.6667 105.167,54.6667 106.5,54C 119.308,48.844 130.808,41.6773 141,32.5C 141.374,31.5838 141.874,30.7504 142.5,30C 140.153,29.6664 137.819,29.833 135.5,30.5C 190.067,1.63503 247.734,-6.6983 308.5,5.5 Z"/></g>
<g><path style="opacity:1" fill="#393f5e" d="M 243.5,3.5 C 242.909,4.15149 242.243,4.81815 241.5,5.5C 243.078,6.2978 244.744,6.7978 246.5,7C 238.125,8.0932 230.125,10.4265 222.5,14C 219.346,16.6027 218.679,19.7694 220.5,23.5C 214.411,22.2992 213.077,19.1325 216.5,14C 223.812,10.257 231.479,7.59034 239.5,6C 238.5,5.66667 237.5,5.33333 236.5,5C 238.594,3.64849 240.927,3.14849 243.5,3.5 Z"/></g>
<g><path style="opacity:1" fill="#4b6784" d="M 220.5,23.5 C 218.679,19.7694 219.346,16.6027 222.5,14C 230.125,10.4265 238.125,8.0932 246.5,7C 244.744,6.7978 243.078,6.2978 241.5,5.5C 242.243,4.81815 242.909,4.15149 243.5,3.5C 247.408,2.20151 251.408,2.36818 255.5,4C 253.285,5.0438 250.952,5.71047 248.5,6C 257.156,6.13117 265.489,7.79784 273.5,11C 277.072,13.6258 277.405,16.6258 274.5,20C 261.28,26.5096 247.28,28.8429 232.5,27C 228.11,26.7407 224.11,25.5741 220.5,23.5 Z"/></g>
<g><path style="opacity:1" fill="#4c6885" d="M 308.5,5.5 C 324.838,8.72499 340.504,13.725 355.5,20.5C 354.504,20.4142 353.671,20.7476 353,21.5C 345.672,17.1056 337.839,15.1056 329.5,15.5C 330.579,17.543 332.246,18.8763 334.5,19.5C 335.386,18.675 335.719,17.675 335.5,16.5C 336.552,16.3505 337.552,16.5172 338.5,17C 339.688,19.7236 341.355,22.0569 343.5,24C 348.755,25.8134 354.088,27.3134 359.5,28.5C 360.799,27.91 361.632,26.91 362,25.5C 362.399,25.7284 362.565,26.0618 362.5,26.5C 362.594,29.7283 362.927,32.895 363.5,36C 362.667,36.8333 361.833,37.6667 361,38.5C 359.667,38.5 358.333,38.5 357,38.5C 356.811,40.795 355.477,42.795 353,44.5C 352.167,43.6667 351.333,42.8333 350.5,42C 350.736,40.5491 350.736,39.0491 350.5,37.5C 352.322,36.719 352.989,35.5523 352.5,34C 352,33.5 351.5,33 351,32.5C 349.366,32.7129 347.866,33.0463 346.5,33.5C 344.656,34.6883 342.823,35.6883 341,36.5C 337.256,35.9902 333.256,35.9902 329,36.5C 327,35.1667 325,33.8333 323,32.5C 321,32.5 319,32.5 317,32.5C 314.5,30 312,27.5 309.5,25C 310.097,22.5639 310.097,19.8973 309.5,17C 307.023,15.295 305.689,13.295 305.5,11C 306.312,9.17722 307.312,7.34388 308.5,5.5 Z"/></g>
<g><path style="opacity:1" fill="#3d4261" d="M 355.5,20.5 C 360.93,22.0502 365.93,24.3836 370.5,27.5C 371.463,28.3635 371.463,29.0302 370.5,29.5C 367.965,28.1 365.298,27.1 362.5,26.5C 362.565,26.0618 362.399,25.7284 362,25.5C 361.632,26.91 360.799,27.91 359.5,28.5C 354.088,27.3134 348.755,25.8134 343.5,24C 341.355,22.0569 339.688,19.7236 338.5,17C 337.552,16.5172 336.552,16.3505 335.5,16.5C 335.719,17.675 335.386,18.675 334.5,19.5C 332.246,18.8763 330.579,17.543 329.5,15.5C 337.839,15.1056 345.672,17.1056 353,21.5C 353.671,20.7476 354.504,20.4142 355.5,20.5 Z"/></g>
<g><path style="opacity:1" fill="#4f6885" d="M 104.5,50.5 C 104.5,49.8333 104.833,49.5 105.5,49.5C 107.027,49.573 108.027,48.9063 108.5,47.5C 116.695,40.655 125.695,34.9883 135.5,30.5C 137.819,29.833 140.153,29.6664 142.5,30C 141.874,30.7504 141.374,31.5838 141,32.5C 130.808,41.6773 119.308,48.844 106.5,54C 105.167,54.6667 103.833,54.6667 102.5,54C 103.305,52.8873 103.972,51.7206 104.5,50.5 Z"/></g>
<g><path style="opacity:1" fill="#7887a3" d="M 350.5,37.5 C 348.833,36.5 347.5,35.1667 346.5,33.5C 347.866,33.0463 349.366,32.7129 351,32.5C 351.5,33 352,33.5 352.5,34C 352.989,35.5523 352.322,36.719 350.5,37.5 Z"/></g>
<g><path style="opacity:1" fill="#4c6885" d="M 381.5,33.5 C 394.321,40.3307 406.321,48.3307 417.5,57.5C 415.856,59.5286 414.189,61.6952 412.5,64C 413.458,65.1475 413.125,66.1475 411.5,67C 411.5,68.3333 411.5,69.6667 411.5,71C 412.5,72.6667 413.5,74.3333 414.5,76C 414.5,78 414.5,80 414.5,82C 416.394,83.1011 417.061,84.4345 416.5,86C 417.894,86.956 418.561,88.2894 418.5,90C 417.63,93.5696 417.63,96.903 418.5,100C 422.491,101.929 426.157,104.929 429.5,109C 428.049,111.036 428.549,112.869 431,114.5C 432.333,114.5 433.667,114.5 435,114.5C 436.532,112.438 438.532,111.104 441,110.5C 442.588,114.155 445.254,117.489 449,120.5C 450.147,119.542 451.147,119.875 452,121.5C 454,120.167 456,120.167 458,121.5C 459.833,123.333 461.667,125.167 463.5,127C 463.167,127.333 462.833,127.667 462.5,128C 467.434,132.606 467.767,137.606 463.5,143C 464.954,148.543 465.62,153.876 465.5,159C 461.342,161.099 457.508,164.266 454,168.5C 453.667,168.167 453.333,167.833 453,167.5C 451.333,168.5 449.667,169.5 448,170.5C 446.333,170.167 444.667,169.833 443,169.5C 442.167,170.333 441.333,171.167 440.5,172C 440.833,173.667 441.167,175.333 441.5,177C 439.833,178.667 438.167,180.333 436.5,182C 436.833,185.667 437.167,189.333 437.5,193C 434.077,195.681 431.744,198.681 430.5,202C 432.167,203.667 433.833,205.333 435.5,207C 435.5,208.333 435.5,209.667 435.5,211C 431.506,215.96 427.34,220.793 423,225.5C 422.691,226.766 422.191,227.933 421.5,229C 421.833,230 422.167,231 422.5,232C 421.167,233.333 419.833,234.667 418.5,236C 418.833,238.333 419.167,240.667 419.5,243C 418.395,247.062 416.728,250.728 414.5,254C 415.325,257.075 415.325,260.408 414.5,264C 413.5,265 412.5,266 411.5,267C 411.5,268.333 411.5,269.667 411.5,271C 409.147,274.102 406.481,276.102 403.5,277C 404.167,277.667 404.833,278.333 405.5,279C 405.311,281.295 403.977,283.295 401.5,285C 401.833,285.333 402.167,285.667 402.5,286C 400.037,286.976 397.37,288.309 394.5,290C 393.129,293.38 390.962,296.213 388,298.5C 386.434,297.939 385.101,298.606 384,300.5C 383.667,300.167 383.333,299.833 383,299.5C 381.167,301.333 379.333,303.167 377.5,305C 378.951,307.036 378.451,308.869 376,310.5C 375.086,309.346 374.253,309.513 373.5,311C 373.833,311.333 374.167,311.667 374.5,312C 369.833,316 365.167,320 360.5,324C 359.787,330.051 356.12,333.718 349.5,335C 347,337.5 344.5,340 342,342.5C 341.938,346.612 340.271,350.279 337,353.5C 335,352.167 333,352.167 331,353.5C 327.823,357.408 324.323,360.241 320.5,362C 320.833,362.333 321.167,362.667 321.5,363C 317.429,366.343 314.429,370.009 312.5,374C 313.258,375.364 312.758,376.531 311,377.5C 310.667,377.167 310.333,376.833 310,376.5C 306.667,380.5 303.333,384.5 300,388.5C 298.5,387 297,385.5 295.5,384C 295.833,383 296.167,382 296.5,381C 294.205,380.811 292.205,379.477 290.5,377C 290.507,374.881 291.674,373.047 294,371.5C 296.64,372.047 298.974,373.713 301,376.5C 301.5,376 302,375.5 302.5,375C 301.602,372.019 299.602,369.353 296.5,367C 297.458,365.853 297.125,364.853 295.5,364C 296.833,362 296.833,360 295.5,358C 293.5,356 291.5,354 289.5,352C 289.833,351.667 290.167,351.333 290.5,351C 288.311,348.056 285.811,346.223 283,345.5C 281.667,345.5 280.333,345.5 279,345.5C 277.667,346.833 276.333,348.167 275,349.5C 273.221,348.521 271.555,348.854 270,350.5C 269,350.167 268,349.833 267,349.5C 266.5,350 266,350.5 265.5,351C 265.5,353.667 265.5,356.333 265.5,359C 268.167,361.667 270.833,364.333 273.5,367C 273.13,370.592 273.13,373.925 273.5,377C 272.167,378.333 270.833,379.667 269.5,381C 269.5,382.333 269.5,383.667 269.5,385C 271.125,385.853 271.458,386.853 270.5,388C 271,388.5 271.5,389 272,389.5C 273.667,389.167 275.333,388.833 277,388.5C 277.667,389.167 278.333,389.833 279,390.5C 280.333,390.5 281.667,390.5 283,390.5C 284.667,389.5 286.333,388.5 288,387.5C 289.5,389 291,390.5 292.5,392C 291.521,393.779 291.854,395.445 293.5,397C 293.5,398.333 293.5,399.667 293.5,401C 291.023,402.705 289.689,404.705 289.5,407C 289.833,407.333 290.167,407.667 290.5,408C 289.284,409.74 287.618,410.74 285.5,411C 282.238,413.517 280.071,416.35 279,419.5C 278.667,419.167 278.333,418.833 278,418.5C 276.899,420.394 275.566,421.061 274,420.5C 270.058,415.441 264.891,412.274 258.5,411C 258.867,409.243 258.034,407.743 256,406.5C 249.535,406.904 243.535,406.904 238,406.5C 236.295,407.763 234.628,408.097 233,407.5C 228.271,410.221 224.104,413.721 220.5,418C 220.5,420 220.5,422 220.5,424C 219.333,425.167 218.167,426.333 217,427.5C 215.667,427.5 214.333,427.5 213,427.5C 209.989,423.754 206.655,421.088 203,419.5C 201.549,419.736 200.049,419.736 198.5,419.5C 198.565,419.062 198.399,418.728 198,418.5C 196.167,420.333 194.333,422.167 192.5,424C 194.833,426.333 197.167,428.667 199.5,431C 197.833,432.667 196.167,434.333 194.5,436C 194.728,436.399 195.062,436.565 195.5,436.5C 194.952,437.688 194.619,438.855 194.5,440C 196.977,441.705 198.311,443.705 198.5,446C 197.833,448 197.167,450 196.5,452C 197.667,453.167 198.833,454.333 200,455.5C 200.333,455.167 200.667,454.833 201,454.5C 203,457.167 205,459.833 207,462.5C 208.667,462.167 210.333,461.833 212,461.5C 215.584,464.346 218.084,467.513 219.5,471C 217.428,474.202 215.928,477.702 215,481.5C 213.667,482.167 212.333,482.833 211,483.5C 208.162,483 205.162,482 202,480.5C 199.667,480.833 197.333,481.167 195,481.5C 193.667,480.833 192.333,480.167 191,479.5C 187.667,480.833 184.333,480.833 181,479.5C 178.056,477.311 176.223,474.811 175.5,472C 176.667,470.833 177.833,469.667 179,468.5C 186.743,470.253 187.076,468.253 180,462.5C 179,462.833 178,463.167 177,463.5C 170.333,456.833 163.667,450.167 157,443.5C 152.464,426.632 141.63,416.132 124.5,412C 119.804,411.086 115.304,411.586 111,413.5C 108.974,410.713 106.64,409.047 104,408.5C 101.667,408.833 99.3333,409.167 97,409.5C 94.3464,405.94 91.3464,404.94 88,406.5C 86.3333,405.5 84.6667,404.5 83,403.5C 78.6667,403.833 74.3333,404.167 70,404.5C 66.3333,402.167 62.6667,399.833 59,397.5C 55.3333,397.833 51.6667,398.167 48,398.5C 46.2267,395.772 44.06,394.439 41.5,394.5C 29.2742,377.047 19.9409,358.047 13.5,337.5C 15.0174,337.511 16.1841,338.177 17,339.5C 17.3333,339.167 17.6667,338.833 18,338.5C 20,339.833 22,341.167 24,342.5C 24.3333,342.167 24.6667,341.833 25,341.5C 26.3333,342.833 27.6667,344.167 29,345.5C 31,345.5 33,345.5 35,345.5C 36.4413,344.13 38.108,343.13 40,342.5C 43.4871,343.916 46.6538,346.416 49.5,350C 48.5,351.667 47.5,353.333 46.5,355C 47.1667,355.667 47.8333,356.333 48.5,357C 47.5419,358.147 47.8753,359.147 49.5,360C 49.1429,364.359 51.3096,367.192 56,368.5C 58.6667,368.5 61.3333,368.5 64,368.5C 66.3333,366.833 68.6667,365.167 71,363.5C 72.3333,363.5 73.6667,363.5 75,363.5C 78.2066,361.492 81.2066,359.825 84,358.5C 86,359.833 88,359.833 90,358.5C 90.6667,359.167 91.3333,359.833 92,360.5C 94.9438,358.311 96.7772,355.811 97.5,353C 101.298,352.072 104.798,350.572 108,348.5C 109.667,348.833 111.333,349.167 113,349.5C 113.667,348.833 114.333,348.167 115,347.5C 117.897,346.903 120.564,346.903 123,347.5C 123.667,346.833 124.333,346.167 125,345.5C 127.667,345.5 130.333,345.5 133,345.5C 133.853,347.125 134.853,347.458 136,346.5C 139.795,348.773 140.295,351.273 137.5,354C 142,358.5 146.5,363 151,367.5C 152.333,367.5 153.667,367.5 155,367.5C 155.853,365.875 156.853,365.542 158,366.5C 158.853,364.875 159.853,364.542 161,365.5C 165.66,362.892 169.994,359.225 174,354.5C 174.333,354.833 174.667,355.167 175,355.5C 176.705,353.023 178.705,351.689 181,351.5C 190.333,360.833 199.667,370.167 209,379.5C 209.667,378.833 210.333,378.167 211,377.5C 212.667,377.833 214.333,378.167 216,378.5C 217.667,377.5 219.333,376.5 221,375.5C 221.333,375.833 221.667,376.167 222,376.5C 223.833,374.667 225.667,372.833 227.5,371C 227.5,368.333 227.5,365.667 227.5,363C 229.012,359.661 229.346,356.661 228.5,354C 234.964,346.866 241.464,339.699 248,332.5C 252.905,331.732 257.572,329.732 262,326.5C 264,326.5 266,326.5 268,326.5C 269.667,325.5 271.333,324.5 273,323.5C 274.145,323.619 275.312,323.952 276.5,324.5C 290.523,341.079 307.857,345.579 328.5,338C 352.788,324.142 360.288,303.975 351,277.5C 348.361,273.361 345.528,269.361 342.5,265.5C 348.515,256.829 349.015,247.829 344,238.5C 336.39,229.156 327.223,227.156 316.5,232.5C 315.375,230.871 314.041,229.371 312.5,228C 312.869,225.532 314.369,223.365 317,221.5C 319,220.167 321,220.167 323,221.5C 324.667,220.5 326.333,219.5 328,218.5C 328.667,219.167 329.333,219.833 330,220.5C 331.333,220.5 332.667,220.5 334,220.5C 335.167,219.333 336.333,218.167 337.5,217C 335.875,216.147 335.542,215.147 336.5,214C 334.833,212.333 333.167,210.667 331.5,209C 330.939,207.434 331.606,206.101 333.5,205C 333.167,204.667 332.833,204.333 332.5,204C 335,201.5 337.5,199 340,196.5C 341.333,196.5 342.667,196.5 344,196.5C 345.167,195.333 346.333,194.167 347.5,193C 346.09,190.156 345.423,187.489 345.5,185C 350.996,181.548 356.162,177.048 361,171.5C 361.519,166.981 363.686,163.481 367.5,161C 367.167,160.667 366.833,160.333 366.5,160C 367.5,158.333 368.5,156.667 369.5,155C 368.542,153.853 368.875,152.853 370.5,152C 370.167,149.667 369.833,147.333 369.5,145C 371.167,142 372.833,139 374.5,136C 375.324,129.744 375.324,123.744 374.5,118C 375.044,117.283 375.711,116.783 376.5,116.5C 379.651,136.146 389.984,150.646 407.5,160C 428.662,167.161 438.496,159.661 437,137.5C 431.911,119.75 421.077,106.916 404.5,99C 398.521,97.2783 392.521,97.1116 386.5,98.5C 384.177,94.9581 381.344,92.6248 378,91.5C 375.483,94.762 372.65,96.9287 369.5,98C 368.167,100 368.167,102 369.5,104C 368.448,105.119 367.281,105.619 366,105.5C 364.833,104.333 363.667,103.167 362.5,102C 361.87,99.1845 362.536,96.5178 364.5,94C 362.667,92.1667 360.833,90.3333 359,88.5C 357.667,88.5 356.333,88.5 355,88.5C 353.5,87 352,85.5 350.5,84C 353.167,81.3333 355.833,78.6667 358.5,76C 359.833,72.6667 359.833,69.3333 358.5,66C 360.125,65.1475 360.458,64.1475 359.5,63C 362.5,61.3333 365.5,59.6667 368.5,58C 368.5,56.6667 368.5,55.3333 368.5,54C 370.167,52.3333 371.833,50.6667 373.5,49C 372.5,48 371.5,47 370.5,46C 371.833,44 371.833,42 370.5,40C 371.667,38.8333 372.833,37.6667 374,36.5C 375.333,36.5 376.667,36.5 378,36.5C 379.039,35.2899 380.206,34.2899 381.5,33.5 Z"/></g>
<g><path style="opacity:1" fill="#a2a7c1" d="M 108.5,47.5 C 108.027,48.9063 107.027,49.573 105.5,49.5C 105.973,48.0937 106.973,47.427 108.5,47.5 Z"/></g>
<g><path style="opacity:1" fill="#3a3f5e" d="M 417.5,57.5 C 472.41,103.308 503.744,161.974 511.5,233.5C 511.5,248.5 511.5,263.5 511.5,278.5C 501.902,358.893 464.235,422.393 398.5,469C 361.869,492.821 321.869,506.987 278.5,511.5C 263.5,511.5 248.5,511.5 233.5,511.5C 161.965,503.654 103.131,472.32 57,417.5C 51.1944,410.207 46.0278,402.54 41.5,394.5C 44.06,394.439 46.2267,395.772 48,398.5C 51.6667,398.167 55.3333,397.833 59,397.5C 62.6667,399.833 66.3333,402.167 70,404.5C 74.3333,404.167 78.6667,403.833 83,403.5C 84.6667,404.5 86.3333,405.5 88,406.5C 91.3464,404.94 94.3464,405.94 97,409.5C 99.3333,409.167 101.667,408.833 104,408.5C 106.64,409.047 108.974,410.713 111,413.5C 115.304,411.586 119.804,411.086 124.5,412C 141.63,416.132 152.464,426.632 157,443.5C 163.667,450.167 170.333,456.833 177,463.5C 178,463.167 179,462.833 180,462.5C 187.076,468.253 186.743,470.253 179,468.5C 177.833,469.667 176.667,470.833 175.5,472C 176.223,474.811 178.056,477.311 181,479.5C 184.333,480.833 187.667,480.833 191,479.5C 192.333,480.167 193.667,480.833 195,481.5C 197.333,481.167 199.667,480.833 202,480.5C 205.162,482 208.162,483 211,483.5C 212.333,482.833 213.667,482.167 215,481.5C 215.928,477.702 217.428,474.202 219.5,471C 218.084,467.513 215.584,464.346 212,461.5C 210.333,461.833 208.667,462.167 207,462.5C 205,459.833 203,457.167 201,454.5C 200.667,454.833 200.333,455.167 200,455.5C 198.833,454.333 197.667,453.167 196.5,452C 197.167,450 197.833,448 198.5,446C 198.311,443.705 196.977,441.705 194.5,440C 194.619,438.855 194.952,437.688 195.5,436.5C 197.63,434.873 199.63,433.04 201.5,431C 199.167,428.667 196.833,426.333 194.5,424C 196.041,422.629 197.375,421.129 198.5,419.5C 200.049,419.736 201.549,419.736 203,419.5C 206.655,421.088 209.989,423.754 213,427.5C 214.333,427.5 215.667,427.5 217,427.5C 218.167,426.333 219.333,425.167 220.5,424C 220.5,422 220.5,420 220.5,418C 224.104,413.721 228.271,410.221 233,407.5C 234.628,408.097 236.295,407.763 238,406.5C 243.535,406.904 249.535,406.904 256,406.5C 258.034,407.743 258.867,409.243 258.5,411C 264.891,412.274 270.058,415.441 274,420.5C 275.566,421.061 276.899,420.394 278,418.5C 278.333,418.833 278.667,419.167 279,419.5C 280.071,416.35 282.238,413.517 285.5,411C 287.618,410.74 289.284,409.74 290.5,408C 290.167,407.667 289.833,407.333 289.5,407C 289.689,404.705 291.023,402.705 293.5,401C 293.5,399.667 293.5,398.333 293.5,397C 291.854,395.445 291.521,393.779 292.5,392C 291,390.5 289.5,389 288,387.5C 286.333,388.5 284.667,389.5 283,390.5C 281.667,390.5 280.333,390.5 279,390.5C 278.333,389.833 277.667,389.167 277,388.5C 275.333,388.833 273.667,389.167 272,389.5C 271.5,389 271,388.5 270.5,388C 271.458,386.853 271.125,385.853 269.5,385C 269.5,383.667 269.5,382.333 269.5,381C 270.833,379.667 272.167,378.333 273.5,377C 273.13,373.925 273.13,370.592 273.5,367C 270.833,364.333 268.167,361.667 265.5,359C 265.5,356.333 265.5,353.667 265.5,351C 266,350.5 266.5,350 267,349.5C 268,349.833 269,350.167 270,350.5C 271.555,348.854 273.221,348.521 275,349.5C 276.333,348.167 277.667,346.833 279,345.5C 280.333,345.5 281.667,345.5 283,345.5C 285.811,346.223 288.311,348.056 290.5,351C 290.167,351.333 289.833,351.667 289.5,352C 291.5,354 293.5,356 295.5,358C 296.833,360 296.833,362 295.5,364C 297.125,364.853 297.458,365.853 296.5,367C 299.602,369.353 301.602,372.019 302.5,375C 302,375.5 301.5,376 301,376.5C 298.974,373.713 296.64,372.047 294,371.5C 291.674,373.047 290.507,374.881 290.5,377C 292.205,379.477 294.205,380.811 296.5,381C 296.167,382 295.833,383 295.5,384C 297,385.5 298.5,387 300,388.5C 303.333,384.5 306.667,380.5 310,376.5C 310.333,376.833 310.667,377.167 311,377.5C 312.758,376.531 313.258,375.364 312.5,374C 314.429,370.009 317.429,366.343 321.5,363C 321.167,362.667 320.833,362.333 320.5,362C 324.323,360.241 327.823,357.408 331,353.5C 333,352.167 335,352.167 337,353.5C 340.271,350.279 341.938,346.612 342,342.5C 344.5,340 347,337.5 349.5,335C 356.12,333.718 359.787,330.051 360.5,324C 365.167,320 369.833,316 374.5,312C 374.167,311.667 373.833,311.333 373.5,311C 374.253,309.513 375.086,309.346 376,310.5C 378.451,308.869 378.951,307.036 377.5,305C 379.333,303.167 381.167,301.333 383,299.5C 383.333,299.833 383.667,300.167 384,300.5C 385.101,298.606 386.434,297.939 388,298.5C 390.962,296.213 393.129,293.38 394.5,290C 397.37,288.309 400.037,286.976 402.5,286C 402.167,285.667 401.833,285.333 401.5,285C 403.977,283.295 405.311,281.295 405.5,279C 404.833,278.333 404.167,277.667 403.5,277C 406.481,276.102 409.147,274.102 411.5,271C 411.5,269.667 411.5,268.333 411.5,267C 412.5,266 413.5,265 414.5,264C 415.325,260.408 415.325,257.075 414.5,254C 416.728,250.728 418.395,247.062 419.5,243C 419.167,240.667 418.833,238.333 418.5,236C 419.833,234.667 421.167,233.333 422.5,232C 422.167,231 421.833,230 421.5,229C 422.191,227.933 422.691,226.766 423,225.5C 427.34,220.793 431.506,215.96 435.5,211C 435.5,209.667 435.5,208.333 435.5,207C 433.833,205.333 432.167,203.667 430.5,202C 431.744,198.681 434.077,195.681 437.5,193C 437.167,189.333 436.833,185.667 436.5,182C 438.167,180.333 439.833,178.667 441.5,177C 441.167,175.333 440.833,173.667 440.5,172C 441.333,171.167 442.167,170.333 443,169.5C 444.667,169.833 446.333,170.167 448,170.5C 449.667,169.5 451.333,168.5 453,167.5C 453.333,167.833 453.667,168.167 454,168.5C 457.508,164.266 461.342,161.099 465.5,159C 465.62,153.876 464.954,148.543 463.5,143C 467.767,137.606 467.434,132.606 462.5,128C 462.833,127.667 463.167,127.333 463.5,127C 461.667,125.167 459.833,123.333 458,121.5C 456,120.167 454,120.167 452,121.5C 451.147,119.875 450.147,119.542 449,120.5C 445.254,117.489 442.588,114.155 441,110.5C 438.532,111.104 436.532,112.438 435,114.5C 433.667,114.5 432.333,114.5 431,114.5C 428.549,112.869 428.049,111.036 429.5,109C 426.157,104.929 422.491,101.929 418.5,100C 417.63,96.903 417.63,93.5696 418.5,90C 418.561,88.2894 417.894,86.956 416.5,86C 417.061,84.4345 416.394,83.1011 414.5,82C 414.5,80 414.5,78 414.5,76C 413.5,74.3333 412.5,72.6667 411.5,71C 411.5,69.6667 411.5,68.3333 411.5,67C 413.125,66.1475 413.458,65.1475 412.5,64C 414.189,61.6952 415.856,59.5286 417.5,57.5 Z"/></g>
<g><path style="opacity:1" fill="#393f5e" d="M 324.5,71.5 C 318.753,68.6917 313.086,68.8584 307.5,72C 302.873,76.3517 302.54,80.8517 306.5,85.5C 300.979,83.6567 297.646,79.8234 296.5,74C 298.097,67.6034 302.264,64.4367 309,64.5C 315.174,64.841 320.341,67.1743 324.5,71.5 Z"/></g>
<g><path style="opacity:1" fill="#4c6885" d="M 324.5,71.5 C 329.35,75.7972 329.683,80.4639 325.5,85.5C 319.078,89.2925 312.745,89.2925 306.5,85.5C 302.54,80.8517 302.873,76.3517 307.5,72C 313.086,68.8584 318.753,68.6917 324.5,71.5 Z"/></g>
<g><path style="opacity:1" fill="#4c6885" d="M 78.5,72.5 C 76.8333,74.8333 74.8333,76.8333 72.5,78.5C 73.5,75.5 75.5,73.5 78.5,72.5 Z"/></g>
<g><path style="opacity:1" fill="#3b4261" d="M 163.5,76.5 C 151.524,75.7334 143.024,80.7334 138,91.5C 137.809,93.7078 137.309,95.7078 136.5,97.5C 133.764,95.1421 132.93,92.1421 134,88.5C 139.523,77.6487 148.356,72.8154 160.5,74C 161.942,74.3768 162.942,75.2101 163.5,76.5 Z"/></g>
<g><path style="opacity:1" fill="#3b4160" d="M 255.5,83.5 C 236.671,77.0004 220.171,80.6671 206,94.5C 199.466,103.753 197.966,113.419 201.5,123.5C 194.926,117.255 192.76,109.588 195,100.5C 198.352,91.147 204.519,84.3137 213.5,80C 224.282,75.2671 235.282,74.6005 246.5,78C 249.898,79.3571 252.898,81.1904 255.5,83.5 Z"/></g>
<g><path style="opacity:1" fill="#4c6885" d="M 163.5,76.5 C 164.117,76.6107 164.617,76.944 165,77.5C 165.306,88.8875 159.806,96.0542 148.5,99C 145.167,99.6667 141.833,99.6667 138.5,99C 137.584,98.7216 136.918,98.2216 136.5,97.5C 137.309,95.7078 137.809,93.7078 138,91.5C 143.024,80.7334 151.524,75.7334 163.5,76.5 Z"/></g>
<g><path style="opacity:1" fill="#4c6885" d="M 255.5,83.5 C 264.063,89.6791 267.23,98.0124 265,108.5C 260.665,120.767 252.165,128.6 239.5,132C 225.115,136.067 212.449,133.234 201.5,123.5C 197.966,113.419 199.466,103.753 206,94.5C 220.171,80.6671 236.671,77.0004 255.5,83.5 Z"/></g>
<g><path style="opacity:1" fill="#3a3f5e" d="M 376.5,116.5 C 376.407,114.595 376.074,112.762 375.5,111C 376.5,110 377.5,109 378.5,108C 379.301,103.719 381.968,100.553 386.5,98.5C 392.521,97.1116 398.521,97.2783 404.5,99C 421.077,106.916 431.911,119.75 437,137.5C 438.496,159.661 428.662,167.161 407.5,160C 389.984,150.646 379.651,136.146 376.5,116.5 Z"/></g>
<g><path style="opacity:1" fill="#3a3f5e" d="M 76.5,101.5 C 72.4186,102.4 68.9186,104.4 66,107.5C 62.7678,111.298 60.6012,115.631 59.5,120.5C 59.6175,111.777 63.6175,104.944 71.5,100C 73.6742,99.1231 75.3409,99.6231 76.5,101.5 Z"/></g>
<g><path style="opacity:1" fill="#4c6885" d="M 76.5,101.5 C 74.7307,110.099 70.064,116.599 62.5,121C 61.2506,121.74 60.2506,121.573 59.5,120.5C 60.6012,115.631 62.7678,111.298 66,107.5C 68.9186,104.4 72.4186,102.4 76.5,101.5 Z"/></g>
<g><path style="opacity:1" fill="#a2a6c1" d="M 388.5,200.5 C 389.458,200.953 390.292,201.619 391,202.5C 391.333,202.167 391.667,201.833 392,201.5C 394.517,204.762 397.35,206.929 400.5,208C 400.577,210.489 399.91,213.156 398.5,216C 398.833,217 399.167,218 399.5,219C 397.606,220.101 396.939,221.434 397.5,223C 395.56,222.822 393.893,223.822 392.5,226C 392.833,226.333 393.167,226.667 393.5,227C 392.181,229.285 390.681,231.452 389,233.5C 387.853,232.542 386.853,232.875 386,234.5C 384.667,234.5 383.333,234.5 382,234.5C 379.532,234.131 377.365,232.631 375.5,230C 376.833,228 376.833,226 375.5,224C 377.394,222.899 378.061,221.566 377.5,220C 375.833,217.667 374.167,215.333 372.5,213C 374.821,212.06 376.988,210.56 379,208.5C 379.333,208.833 379.667,209.167 380,209.5C 381.5,208 383,206.5 384.5,205C 384.167,204.667 383.833,204.333 383.5,204C 385.146,202.245 386.813,201.078 388.5,200.5 Z"/></g>
<g><path style="opacity:1" fill="#516c88" d="M 311.5,208.5 C 313.296,209.793 314.963,211.293 316.5,213C 316,213.5 315.5,214 315,214.5C 313.5,213 312,211.5 310.5,210C 311.056,209.617 311.389,209.117 311.5,208.5 Z"/></g>
<g><path style="opacity:1" fill="#393f5e" d="M 100.5,211.5 C 101.776,212.386 101.776,213.386 100.5,214.5C 99.4376,213.575 99.4376,212.575 100.5,211.5 Z"/></g>
<g><path style="opacity:1" fill="#3a3f5e" d="M 90.5,236.5 C 82.3657,234.156 77.199,237.156 75,245.5C 74.5012,249.486 74.3345,253.486 74.5,257.5C 68.0358,249.425 67.8691,241.092 74,232.5C 81.1596,227.491 86.6596,228.824 90.5,236.5 Z"/></g>
<g><path style="opacity:1" fill="#393f5e" d="M 276.5,324.5 C 273.463,319.232 271.297,313.565 270,307.5C 268.194,280.761 280.027,263.428 305.5,255.5C 305.554,245.957 309.221,238.29 316.5,232.5C 327.223,227.156 336.39,229.156 344,238.5C 349.015,247.829 348.515,256.829 342.5,265.5C 345.528,269.361 348.361,273.361 351,277.5C 360.288,303.975 352.788,324.142 328.5,338C 307.857,345.579 290.523,341.079 276.5,324.5 Z"/></g>
<g><path style="opacity:1" fill="#4c6885" d="M 90.5,236.5 C 93.8434,244.973 92.1767,252.473 85.5,259C 81.3875,261.215 77.7209,260.715 74.5,257.5C 74.3345,253.486 74.5012,249.486 75,245.5C 77.199,237.156 82.3657,234.156 90.5,236.5 Z"/></g>
<g><path style="opacity:1" fill="#4c6885" d="M 332.5,237.5 C 334.827,237.247 336.827,237.914 338.5,239.5C 323.433,267.583 303.6,291.916 279,312.5C 277.155,295.028 283.322,281.195 297.5,271C 302.773,267.743 308.439,265.577 314.5,264.5C 313.338,250.44 319.338,241.44 332.5,237.5 Z"/></g>
<g><path style="opacity:1" fill="#393f5e" d="M 35.5,252.5 C 32.8594,249.558 29.8594,249.058 26.5,251C 23.7692,253.626 21.9358,256.793 21,260.5C 16.4756,252.235 12.8089,252.568 10,261.5C 8.7614,267.435 8.2614,273.435 8.5,279.5C 7.3454,272.679 7.17874,265.679 8,258.5C 8.43786,255.624 9.43786,252.957 11,250.5C 12.3876,249.446 13.8876,249.28 15.5,250C 16.7875,251.41 17.9542,252.91 19,254.5C 20,252.167 21,249.833 22,247.5C 28.7286,242.502 33.2286,244.169 35.5,252.5 Z"/></g>
<g><path style="opacity:1" fill="#4b6784" d="M 35.5,252.5 C 38.8207,261.636 39.3207,270.97 37,280.5C 34.7302,289.992 30.0635,291.659 23,285.5C 22.4802,289.772 20.9802,293.605 18.5,297C 14.4117,297.604 11.9117,295.77 11,291.5C 9.5302,287.622 8.69686,283.622 8.5,279.5C 8.2614,273.435 8.7614,267.435 10,261.5C 12.8089,252.568 16.4756,252.235 21,260.5C 21.9358,256.793 23.7692,253.626 26.5,251C 29.8594,249.058 32.8594,249.558 35.5,252.5 Z"/></g>
<g><path style="opacity:1" fill="#9aa0bc" d="M 140.5,366.5 C 141.397,367.598 142.23,367.598 143,366.5C 143.853,368.125 144.853,368.458 146,367.5C 148.978,369.663 148.645,371.663 145,373.5C 143,372.167 141,372.167 139,373.5C 138.167,372.667 137.333,371.833 136.5,371C 138.041,369.629 139.375,368.129 140.5,366.5 Z"/></g>
<g><path style="opacity:1" fill="#445674" d="M 198.5,419.5 C 197.375,421.129 196.041,422.629 194.5,424C 196.833,426.333 199.167,428.667 201.5,431C 199.63,433.04 197.63,434.873 195.5,436.5C 195.062,436.565 194.728,436.399 194.5,436C 196.167,434.333 197.833,432.667 199.5,431C 197.167,428.667 194.833,426.333 192.5,424C 194.333,422.167 196.167,420.333 198,418.5C 198.399,418.728 198.565,419.062 198.5,419.5 Z"/></g>
</svg>
